<svg
      xmlns="http://www.w3.org/2000/svg"
      width={1132.913}
      height={1110.163}
      viewBox="0 0 299.75 293.731"
    >
      <path d="M60.838 194.596c7.264-4.778 14.357-8.055 31.71-14.65 10.91-5.65 26.552-3.8 34.641-14.092.803-1.237-3.556-9.854-7.946-15.707-4.194-5.592-11.743-13.188-19.858-19.98-8.094-6.776-7.54-6.468-9.496-5.282-5.789 3.507-12.474 9.084-25.84 21.556-15.234 14.215-18.82 17.262-25.886 22.003-3.392 2.276-10.217 5.917-13.23 7.06-1.47.556-1.906 1.023-3.02 3.229-5.572 11.038-8.316 23.267-6.987 31.134.945 5.594 4.812 11.56 8.237 12.709.788.264 2.823.43 4.521.367 13.825-4.612 21.598-20.72 33.154-28.347zm34.65-29.685c-2.148-1.924-4.22-3.677-4.604-3.895-.822-.467-1.479.142-4.346 4.028-2.161 2.931-2.783 3.108-5.236 1.488-2.382-1.572-7.596-6.795-7.596-7.61 0-.74 3.78-7.553 4.737-8.535.705-.724 2.1.138 7.186 4.44 1.914 1.62 3.748 2.893 4.075 2.83.328-.063 1.698-1.732 3.044-3.71 1.984-2.912 2.644-3.595 3.479-3.595.76 0 2.25 1.204 5.693 4.601 2.565 2.53 4.663 4.856 4.663 5.168 0 .957-3.315 6.209-4.602 7.292-.668.562-1.524 1.016-1.902 1.01-.378-.008-2.445-1.588-4.592-3.512zm134.948 47.804c2.003-1.049 4.36-2.738 5.905-4.23 2.48-2.395 2.57-2.556 2.57-4.537 0-5.277-2.976-9.695-7.046-11.796-3.086-1.593-9.466-1.526-10.387.827-1.264 3.71-.619 9.362 1.773 15.534 1.457 3.76 2.7 5.949 3.38 5.949.26 0 1.971-.786 3.805-1.747zm-118.893 34.36c18.62-5.959 34.949-13.147 46.55-23.6 3.273-3.067 3.61-3.519 3.398-4.575-.48-2.404-4.003-10.732-9.09-21.493-8.266-17.48-8.16-17.201-7.608-20.137.82-4.354 2.231-7.602 3.303-7.602.605 0 14.788 15.944 14.788 16.625 0 .925-2.152.811-4.174-.22-1.096-.56-1.816-.716-2.08-.452-.674.674.683 4.451 4.032 11.218 5.383 10.878 6.74 16.792 5.351 23.338-1.229 5.795-3.764 10.12-9.263 15.803-15.932 13.423-26.46 20.84-46.544 28.502 0 0 1.414 8.566 3.744 13.293 3.56 7.224 10.831 6.297 17.437 3.186 15.781-8.935 17.83-18.227 30.297-31.541 8.882-9.396 16.5-16.03 35.097-23.74 11.46-4.75 22.405-6.483 22.403-7.39-.001-.41-.45-2.872-.995-5.472-2.08-9.899-2.377-17.931-.874-23.63 1.629-6.176 5.427-11.335 9.171-12.457 2.18-.653 5.976-.619 7.622.07.734.306 2.17 1.487 3.192 2.623 5.183 5.766 7.857 15.72 6.36 23.685-1.377 7.337-4.304 12.89-9.827 18.647l-3.253 3.39 1.134 1.636c3.938 5.692 19.427 5.515 34.995-1.511.141-.564-.524-8.82-1.478-18.348-1.758-17.565-2.102-20.458-7.592-63.968-7.245-57.415-8.584-68.018-10.521-83.31-1.123-8.865-2.042-17.653-2.042-17.653l3.46-7.821c2.49 8.338 11.83 28.647 11.83 28.647s-1.569-.832-2.506-1.85c-.938-1.016-2.142-1.848-2.142-1.848s-.355.99-.187 2.979c.137 1.639.525 6.308.86 10.377 1.644 19.938 1.987 22.939 13.984 122.465 1.934 16.05 1.917 15.785 1.45 21.781-.825 10.583-3.048 16.786-7.678 21.421-4.448 4.453-11.633 7.19-19.07 7.266-4.834.049-7.976-.77-11.036-2.878-2.617-1.802-6.119-6.06-8.485-10.316-.904-1.626-1.879-2.957-2.166-2.957-.738-.001-13.6 2.899-19.96 5.708-9.917 4.38-22.662 13.089-26.488 15.648-5.353 3.58-12.116 10.253-21.106 20.824-12.044 14.163-18.115 19.924-22.69 21.532-2.715.954-6.478 1.015-9.67.157-3.264-.878-6.053-2.527-9.073-5.365-4.504-4.233-6.969-9.405-8.406-17.639-.347-1.99-.475-4.485-.475-4.485s-3.47.637-6.747 1.089c-8.634 1.188-19.362 1.196-24.863.017-10.452-2.24-17.937-8.532-21.956-18.454-2.15-5.31-3.226-11.213-3.599-19.753-.177-4.048-.404-5.856-.736-5.856-.506 0-1.432.682-6.493 4.783-4.186 3.392-5.869 3.996-10.509 3.774-5.1-.244-8.159-1.752-12.474-6.15-10.2-10.397-10.24-23.44-.14-47.322.362-.858.563-1.714.446-1.904-.117-.19-1.608-1.007-3.313-1.817C7.5 170.418 2.243 164.495.675 157.75c-2.626-14.454 2.828-25.07 9.173-37.881-.714 12.738-9.738 29.274-2.423 39.989 2.478 3.677 10.01 3.917 15.073 2.75 2.982-.688 11.222-5.69 18.148-11.015 17.816-14.535 22.55-18.422 38.546-33.213 1.544-1.423 2.72-2.813 2.614-3.088-.162-.423-51.255-39.58-52.951-40.582l-2.22-1.823.06-5.754c.064-6.012.74-9.666 2.68-14.49l.87-2.163 6.833-3.855C70.746 27.633 112.995 11.844 160.344.556c3.674-.876 8.627-.696 10.76.39 3.65 1.86 5.096 4.21 5.078 8.256-.039 8.779-7.128 20.62-22.134 36.972-3.563 3.883-8.185 9.135-11.227 12.758l-1.365 1.626.217-1.644c.12-.904 1.057-3.308 2.083-5.342 2.913-5.777 4.475-7.716 19.65-24.396 4.956-5.449 6.876-8.35 6.876-10.39 0-2.202-.858-4.072-2.5-5.454l-1.38-1.16-6.998.206c-19.92 1.679-29.006 7.52-46.38 12.673-5.672 1.668-36.99 12.791-50.003 18.367-11.636 4.986-31.232 15.1-31.232 16.119 0 .49-.302.276 41.3 29.186 5.652 3.927 13.398 9.337 17.214 12.022 3.817 2.685 7.189 4.977 7.493 5.094.305.117 1.898-.343 3.54-1.02 7.555-3.12 14.422-4.6 21.353-4.602 2.416-.001 4.492-.16 4.611-.354.29-.468-1.208-6.562-4.207-17.113-6.096-21.455-6.901-31.245-3.269-39.76.834-1.955 1.53-2.402 2.245-1.439.968 1.306 9.705 19.638 9.47 19.872-.145.146-1.015-.035-1.933-.403-2.975-1.19-3.042-1.124-2.725 2.723.395 4.806 2.101 12.926 3.776 17.98 3.693 11.136 8.71 17.997 17.92 24.51 3.019 2.134 3.182 2.332 3.653 4.44.683 3.05.32 10.327-.559 11.206-.593.593-.833.497-2.737-1.097-7.45-6.238-17.42-9.435-26.954-8.642-4.165.346-9.643 1.822-9.643 2.598 0 .283 2.169 2.263 4.82 4.4 13.859 11.17 30.43 25.212 41.543 35.205 7.154 6.432 13.469 10.804 15.607 10.804.887 0 .94-.127.73-1.747-.126-.96-.426-3.965-.668-6.678-.7-7.85-2.307-21.851-4.316-37.602-1.024-8.024-2.32-18.196-2.88-22.603-1.384-10.883-2.882-24.091-3.508-30.935l-.519-5.66c.56-.929 3.232-5.734 3.232-5.734l12.624 28.02s-1.486-.617-2.906-1.766c-1.42-1.15-2.698-1.973-2.84-1.831-.374.374 2.132 21.86 5.643 48.385 1.4 10.57 3.634 29.03 4.146 34.247.56 5.721.847 6.17 4.2 6.57 4.161.496 11.29-2.134 15.845-5.846.98-.798 1.962-1.85 2.185-2.34.506-1.11-1.113-15.655-4.827-43.384-1.469-10.962-2.84-21.226-3.048-22.808-.207-1.583-1.207-9.072-2.222-16.644-1.015-7.572-2.125-15.894-2.467-18.493-2.36-17.936-3.34-24.816-4.796-33.645-2.042-12.387-2.1-13.654-2.1-13.654s2.803-9.003 3.163-9.003c1.175 0 14.093 27.79 14.093 27.79l-6.927-3.543s.065 11.777 7.64 67.308c5.04 36.95 7.591 56.859 7.586 59.213-.014 7.001-2.493 13.957-6.402 17.962-3.582 3.67-9.381 7.065-15.371 8.998-1.243.401-3.646.23-3.869.437-.249.23 1.316 18.184 1.29 26.31-.037 11.574-1.42 49.197-2.187 53.509-.92 5.176-3.558 14.148-4.129 14.148-.184 0-.447-4.022-.586-8.938-.245-8.678.342-64.53-1.001-76.968-.89-8.249-.648-7.626-3.383-8.702-7.132-2.807-13.46-7.38-23.91-17.274-18.39-17.416-23.904-22.224-32.663-28.48-1.786-1.274-3.404-2.318-3.596-2.318-.806 0-.211 1.05 2.056 3.631 4.319 4.918 7.03 8.825 9.316 13.424 2.863 5.76 3.895 9.755 3.895 15.087 0 10.436-2.97 14.763-14.384 20.956-4.647 2.521-9.198 4.337-19.225 7.671-17.556 5.838-24.2 8.633-31.072 13.07-5.733 3.702-11.92 9.494-13.617 12.749-1.22 2.34-.46 11.543 1.448 17.5 3.185 9.954 11.843 14.359 22.912 17.144 10.306 1.855 18.28-.17 29.856-3.584 2.107-6.129 9.171-18.06 11.542-23.65-1.089 6.8-5.492 16.335-6.747 21.629zm-2.671-31.083c-2.226-2.236-3.562-3.905-3.562-4.448 0-1.106 2.935-5.525 4.6-6.926.81-.681 1.508-.964 1.93-.782 5.191 3.257 7.006 6.032 9.909 8.962 0 1.208-2.262 4.057-5.388 8.294-2.056.071-3.319-.91-7.489-5.1zm-96.757-100.1l-.609-1.795c-1.049-3.09-1.5-7.665-1.067-10.806 1.07-7.753 3.08-11.002 10.995-21.678 1.812-1.617 6.853-7.511 6.003-5.02-.072.107-2.966 4.69-3.037 4.798-3.155 4.758-5.784 10.045-6.531 13.15-.646 2.686-.579 6.372.163 8.868 1.257 4.235 2.84 4.468 6.22.916 1.292-1.356 2.683-2.466 3.093-2.466.901 0 .907.126.134 2.73-2.85 6.24-11.296 18.284-15.364 11.303zm81.08 170.717c-2.686-1.149-3.683-6.106-2.45-12.188.745-3.677 1.225-4.89 1.936-4.89.317 0 .37 1.138.175 3.8-.3 4.12.077 6.001 1.527 7.604 1.08 1.194 1.964 1.169 3.147-.09 1.72-1.831 2.25-.089.87 2.864-1.458 3.119-2.862 3.901-5.206 2.9zm117.587-14.062c-2.35-5.822-4.99-8.462-9.564-9.567-1.3-.314-1.938-.77-2.623-1.879-1.209-1.955-1.462-4.512-.64-6.477.613-1.47.732-1.546 1.995-1.279 3.113.659 6.556 3.983 9.665 9.331 1.584 2.724 2.927 4.499 2.999 3.963.011-.085.27-2.701.574-5.815.608-6.224 1.86-9.799 3.733-10.652 2.054-.936 4.918.534 6.307 3.239.657 1.279.577 1.926-.39 3.155-.946 1.203-1.513 1.08-3.804-.826-1.395-1.161-2.38-1.225-3.295-.215-.548.606-.682 1.662-.688 5.445-.013 7.211-1.321 14.351-2.63 14.351-.286 0-1.023-1.248-1.639-2.774zm-59.979-130.24s3.545-3.526 6.25-5.49c-2.21-.416-5.45-4.936-5.131-6.321.38-1.517 3.304-4.517 5.383-5.523 2.494-1.208 3.481-.674 3.481 1.882 0 1.227-.73 2.133-.73 2.133s.242-.904-.294-1.39c-1.795-.613-5.407 1.46-4.756 3.27.489 1.285 2.382 2.33 4.22 2.33.746 0 2.631-.365 4.189-.81 1.557-.445 3.432-1.348 3.432-1.348.185.74.346 2.315.321 2.756-4.31 4.038-14.56 9.362-14.56 9.362zm136.44 61.613c-.135-.643-.804-9.084-1.487-18.755-1.46-20.668-2.067-27.011-3.725-38.922-.677-4.86-1.782-12.812-2.457-17.671-.675-4.86-1.583-11.333-2.017-14.384a6486.544 6486.544 0 01-2.274-16.233c-2.65-19.086-3.428-21.862-3.428-21.862l2.605-11.906c5.337 8.908 14.89 28.946 14.89 28.946l-7.698-4.478s2.287 21.058 4.54 35.92c4.507 29.73 5.801 42.87 5.8 58.876 0 10.786-.202 12.209-2.541 17.882-1.52 3.688-1.888 4.118-2.208 2.587zm-47.92-43.537c-2.147-1.92-4.214-3.666-4.593-3.882-.565-.321-1.214.273-3.605 3.305-1.604 2.034-3.069 3.697-3.255 3.697-1.553 0-10.328-7.712-10.328-9.077 0-.935 4.713-8.58 5.294-8.587.887-.011 3.131 1.51 6.768 4.586 1.837 1.555 3.61 2.774 3.942 2.71.592-.113 1.82-1.604 4.433-5.384.797-1.153 1.64-1.92 2.113-1.92 1.028 0 3.723 2.28 7.634 6.458l3.16 3.374-1.742 2.93c-2.083 3.507-3.81 5.329-5.024 5.3-.521-.012-2.518-1.473-4.797-3.51zm-7.14-17.068c-.142-.707-.257-2.614-.257-4.238-5.095-27.973-6.906-60.457-15.22-110.208-.67-3.64-1.219-8.278-1.219-8.278l3.912-9.136 12.645 29.582-5.795-3.576c4.454 34.187 6.718 52.01 8.927 69.01 1.35 9.303 1.598 19.554.648 26.801-.619 4.724-2.393 11.327-3.043 11.327-.188 0-.457-.578-.599-1.284zm62.514-2.975c-2.195-2.034-2.567-3.328-2.554-8.892.011-4.817.5-8.249 1.902-13.356.661-2.41 1.077-.825.683 2.604-.838 7.285-.864 8.909-.178 11.268.373 1.283 1.121 2.847 1.663 3.477l.986 1.144 1.01-.947c.883-.829 1.04-.863 1.267-.274.54 1.408.25 3.792-.594 4.865-1.082 1.375-2.774 1.42-4.185.111zm-85.3-68.493c-2.701-1.648-3.939-6.966-3.009-12.933.534-3.426 1.608-7.192 2.05-7.192.175 0 .154 1.434-.045 3.185-.627 5.526.06 9.42 2.07 11.713.952 1.085 2.047.871 2.778-.54.773-1.496 1.576-1.394 1.766.225.223 1.899-.306 3.805-1.422 5.131-1.224 1.455-2.301 1.56-4.187.41zM48.224 125.04c-2.516-1.336-3.471-4.79-2.853-10.318.628-5.614 3.1-13.836 4.16-13.836.533 0 .114 4.138-.76 7.509-.988 3.818-.912 7.176.218 9.51 1.102 2.276 1.636 2.576 3.335 1.872 1.728-.715 2.21-.148 1.648 1.94-.773 2.872-3.561 4.484-5.748 3.323zm48.068-50.712c-1.4-1.78-2.235-5.015-2.217-8.59.018-3.661 1.044-8.747 2.005-9.934.56-.693.589-.448.29 2.52-.6 5.979-1.842 7.832.524 10.347.734.78 2.33 1.68 3.195.358.958-1.46 1.9-1.362 1.9.198 0 1.693-.884 3.66-2.258 5.021-1.422 1.409-2.377 1.43-3.44.08z" />
    </svg>