<svg id="Capa_1" enable-background="new 0 0 501 501" height="512" viewBox="0 0 501 501" width="512" xmlns="http://www.w3.org/2000/svg"><g><path d="m34.73 372.154c-18.292-33.909-28.825-72.621-29.219-113.758-1.295-135.263 109.721-247.396 244.99-247.396 135.309 0 244.999 109.691 244.999 245 0 61.122-22.382 117.017-59.398 159.934-5.006 5.804-14.144 5.376-18.666-.814-44.563-60.995-116.634-100.62-197.959-100.62-62.323 0-119.211 23.271-162.449 61.598-6.966 6.174-17.878 4.248-22.298-3.944z" fill="#0a4499"/><path d="m436.5 150h-372v-100h196.07c4.06-2.632 9.211-2.913 13.533-.738l1.467.738h145.93c8.284 0 15 6.716 15 15z" fill="#ffb52d"/><path d="m94.5 150h-50v-100h50z" fill="#f29500"/><path d="m436.5 90v325.28c-12.697 14.861-27.136 28.176-43 39.625v-272.905c0-5.523-4.477-10-10-10h-319v-75.506c4.932-5.735 10.125-11.239 15.562-16.494h346.438c5.523 0 10 4.477 10 10z" fill="#fff5f5"/><path d="m94.5 110v15h342v15h-342v30h-50v-90h50v15h342v15z" fill="#badfe4"/><path d="m94.5 95v15h-50v-15zm-50 45h50v-15h-50z" fill="#70bdc8"/><path d="m408.5 174v269.261c-42.655 36.024-97.787 57.739-157.99 57.739-91.976 0-172.114-50.683-214.01-125.643v-216.357h357c8.284 0 15 6.716 15 15z" fill="#ffb52d"/><path d="m44.5 159h50v285.924c-19.406-16.042-36.299-35.017-50-56.246z" fill="#f29500"/><path d="m34.5 140.275c8.42-15.683 18.498-30.343 30-43.746v318.942c-11.502-13.403-21.58-28.063-30-43.746z" fill="#ffc14f"/><path d="m49.5 180c-8.284 0-15-6.716-15-15v-120c0-8.284 6.716-15 15-15 8.284 0 15 6.716 15 15v120c0 8.284-6.716 15-15 15z" fill="#ffd993"/><path d="m134.5 250 30-30h160l30 30v227.895c-31.569 14.822-66.817 23.105-104 23.105-41.967 0-81.47-10.552-116-29.147z" fill="#ffc14f"/><path d="m164.5 262.826c3.176-4.481 7.638-7.986 12.848-9.978 1.991-5.21 5.496-9.673 9.978-12.848 4.481 3.176 7.986 7.638 9.978 12.848 5.21 1.991 9.673 5.496 12.848 9.978-3.176 4.481-7.638 7.986-12.848 9.978-1.991 5.21-5.496 9.673-9.978 12.848-4.481-3.176-7.986-7.638-9.978-12.848-5.21-1.992-9.672-5.497-12.848-9.978zm152.803 200.022c-1.991-5.21-5.496-9.672-9.978-12.848-4.481 3.176-7.986 7.638-9.978 12.848-5.211 1.991-9.673 5.497-12.848 9.978 3.176 4.481 7.638 7.986 12.848 9.978 1.796 4.699 4.822 8.789 8.686 11.875 1.209-.28 2.415-.569 3.617-.867 3.37-2.969 6.02-6.737 7.652-11.008 5.21-1.991 9.673-5.496 12.848-9.978-3.174-4.481-7.636-7.987-12.847-9.978zm-125.651 0c-1.991-5.21-5.496-9.672-9.978-12.848-4.481 3.176-7.986 7.638-9.978 12.848-5.21 1.991-9.673 5.497-12.848 9.978 3.176 4.481 7.638 7.986 12.848 9.978.875 2.291 2.044 4.437 3.459 6.393 3.442 1.112 6.918 2.149 10.425 3.11 2.622-2.698 4.704-5.924 6.071-9.503 5.211-1.991 9.673-5.496 12.848-9.978-3.175-4.481-7.637-7.987-12.847-9.978zm105.696-190.045c1.991 5.21 5.496 9.673 9.978 12.848 4.481-3.176 7.986-7.638 9.978-12.848 5.211-1.991 9.673-5.496 12.848-9.978-3.176-4.481-7.638-7.986-12.848-9.978-1.991-5.21-5.496-9.673-9.978-12.848-4.481 3.176-7.986 7.638-9.978 12.848-5.21 1.991-9.673 5.496-12.848 9.978 3.176 4.482 7.638 7.987 12.848 9.978z" fill="#ffd993"/><path d="m360.303 245.196c1.407 1.407 2.197 3.314 2.197 5.304v224.216c-4.906 2.512-9.909 4.863-15 7.047v-228.157l-25.607-25.606h-153.787l-25.606 25.606v222.619c-5.103-2.525-10.106-5.222-15-8.084v-217.641c0-1.989.79-3.896 2.197-5.304l30-30c1.406-1.406 3.314-2.196 5.302-2.196h160.001c1.989 0 3.897.79 5.304 2.197zm-27.045 114.103-19.189-19.189c-1.645-1.645-2.569-3.875-2.569-6.201v-27.139c0-4.844-3.927-8.77-8.77-8.77h-27.138c-2.326 0-4.557-.924-6.201-2.569l-19.189-19.189c-3.425-3.425-8.978-3.425-12.403 0l-19.189 19.189c-1.645 1.645-3.875 2.569-6.201 2.569h-27.139c-4.844 0-8.77 3.927-8.77 8.77v27.138c0 2.326-.924 4.557-2.569 6.201l-19.189 19.189c-3.425 3.425-3.425 8.978 0 12.403l19.189 19.189c1.645 1.645 2.569 3.875 2.569 6.201v27.138c0 4.844 3.927 8.77 8.77 8.77h27.138c2.326 0 4.557.924 6.201 2.569l19.189 19.189c3.425 3.425 8.978 3.425 12.403 0l19.189-19.189c1.645-1.645 3.875-2.569 6.201-2.569h27.138c4.844 0 8.77-3.927 8.77-8.77v-27.138c0-2.326.924-4.557 2.569-6.201l19.189-19.189c3.426-3.425 3.426-8.977.001-12.402z" fill="#ffd993"/><path d="m267.501 388.013c-4.59 12.012-12.671 22.299-23.001 29.62-10.331-7.321-18.411-17.608-23.001-29.62-12.012-4.59-22.299-12.671-29.62-23.001 7.321-10.331 17.608-18.411 29.62-23.001 4.59-12.012 12.671-22.299 23.001-29.62 10.331 7.321 18.411 17.608 23.001 29.62 12.012 4.59 22.299 12.671 29.62 23.001-7.321 10.33-17.608 18.41-29.62 23.001z" fill="#ffcd71"/><path d="m234.822 270.762 7.934-7.934c.781-.781.781-2.047 0-2.828l-7.934-7.934c-.781-.781-2.047-.781-2.828 0l-7.934 7.934c-.781.781-.781 2.047 0 2.828l7.934 7.934c.781.781 2.047.781 2.828 0zm30.44 0 7.934-7.934c.781-.781.781-2.047 0-2.828l-7.934-7.934c-.781-.781-2.047-.781-2.828 0l-7.934 7.934c-.781.781-.781 2.047 0 2.828l7.934 7.934c.781.781 2.047.781 2.828 0zm-30.44 210 7.934-7.934c.781-.781.781-2.047 0-2.828l-7.934-7.934c-.781-.781-2.047-.781-2.828 0l-7.934 7.934c-.781.781-.781 2.047 0 2.828l7.934 7.934c.781.781 2.047.781 2.828 0zm30.44 0 7.934-7.934c.781-.781.781-2.047 0-2.828l-7.934-7.934c-.781-.781-2.047-.781-2.828 0l-7.934 7.934c-.781.781-.781 2.047 0 2.828l7.934 7.934c.781.781 2.047.781 2.828 0zm-9.824-104.813c-2.183 5.712-6.026 10.604-10.938 14.085-4.913-3.481-8.755-8.373-10.938-14.085-5.712-2.183-10.604-6.026-14.085-10.938 3.481-4.913 8.373-8.755 14.085-10.938 2.183-5.712 6.026-10.604 10.938-14.085 4.913 3.481 8.755 8.373 10.938 14.085 5.712 2.183 10.604 6.026 14.085 10.938-3.481 4.913-8.373 8.755-14.085 10.938z" fill="#ffe7c0"/><path d="m323.5 31.5v255.716c0 3.834-2.754 7.265-6.561 7.727-4.562.554-8.439-2.991-8.439-7.443v-255.61c0-8.289-6.714-16.072-14.968-16.821-9.784-.887-18.032 6.827-18.032 16.43v18.501h-15v-17.862c0-16.571 12.547-30.8 29.071-32.046 18.461-1.392 33.929 13.236 33.929 31.408z" fill="#bc3f2a"/><path d="m177.978 264.24 7.934 7.934c.781.781 2.047.781 2.828 0l7.934-7.934c.781-.781.781-2.047 0-2.828l-7.934-7.934c-.781-.781-2.047-.781-2.828 0l-7.934 7.934c-.781.781-.781 2.047 0 2.828zm120 0 7.934 7.934c.781.781 2.047.781 2.828 0l7.934-7.934c.781-.781.781-2.047 0-2.828l-7.934-7.934c-.781-.781-2.047-.781-2.828 0l-7.934 7.934c-.781.781-.781 2.047 0 2.828zm0 210 7.934 7.934c.781.781 2.047.781 2.828 0l7.934-7.934c.781-.781.781-2.047 0-2.828l-7.934-7.934c-.781-.781-2.047-.781-2.828 0l-7.934 7.934c-.781.781-.781 2.047 0 2.828zm-125.652 0 7.934 7.934c.781.781 2.047.781 2.828 0l7.934-7.934c.781-.781.781-2.047 0-2.828l-7.934-7.934c-.781-.781-2.047-.781-2.828 0l-7.934 7.934c-.781.781-.781 2.047 0 2.828z" fill="#ffa90b"/><path d="m323.5 184v166.125c0 3.834-2.754 7.265-6.561 7.727-4.562.554-8.439-2.992-8.439-7.443v-166.124c0-3.834 2.754-7.265 6.561-7.727 4.561-.555 8.439 2.991 8.439 7.442z" fill="#d1462a"/><path d="m352.368 454.601c-10.462 7.079-60.705 7.079-71.166 0-8.637-18.067-6.372-41.315 6.793-56.665l24.183-28.197c-6.145-1.952-10.598-7.703-10.598-14.494 0-8.397 6.807-15.205 15.205-15.205 8.397 0 15.205 6.807 15.205 15.205 0 6.792-4.453 12.542-10.598 14.494l24.183 28.197c13.165 15.35 15.43 38.597 6.793 56.665z" fill="#ea552d"/><path d="m331.99 292.705c0 8.397-6.807 15.205-15.205 15.205-8.397 0-15.205-6.807-15.205-15.205 0-8.397 6.807-15.205 15.205-15.205 8.397 0 15.205 6.807 15.205 15.205zm13.585 105.231-11.125-12.972c.033 1.656.05 3.336.05 5.036 0 27.614-4.477 50-10 50s-10-22.386-10-50c0-.497.002-.992.005-1.485l-8.079 9.42c-13.165 15.35-15.43 38.598-6.793 56.665 4.162 2.816 14.622 4.512 26.368 5.087 11.746-.575 22.206-2.271 26.368-5.087 8.636-18.067 6.371-41.314-6.794-56.664z" fill="#f76937"/></g></svg>