<?xml version="1.0" encoding="UTF-8"?>
<svg width="1626px" height="1618px" viewBox="0 0 1626 1618" version="1.1" xmlns="http://www.w3.org/2000/svg" xmlns:xlink="http://www.w3.org/1999/xlink">
    <title>Group</title>
    <g id="Page-1" stroke="none" stroke-width="1" fill="none" fill-rule="evenodd">
        <g id="Group" fill-rule="nonzero">
            <g>
                <g>
                    <g>
                        <g transform="translate(0.000000, 53.000000)" id="Path">
                            <path d="M1032.6,41.7 L57.5,41.7 C26,41.7 0.4,67.3 0.4,98.8 L0.4,1507.5 C0.4,1539 26,1564.6 57.5,1564.6 L1032.6,1564.6 C1064.1,1564.6 1089.7,1539 1089.7,1507.5 L1089.7,98.8 C1089.7,67.2 1064.1,41.7 1032.6,41.7 Z" fill="#273941"></path>
                            <path d="M1032.6,11.3 L57.5,11.3 C26,11.3 0.4,36.9 0.4,68.4 L0.4,1477 C0.4,1508.5 26,1534.1 57.5,1534.1 L1032.6,1534.1 C1064.1,1534.1 1089.7,1508.5 1089.7,1477 L1089.7,68.4 C1089.7,36.8 1064.1,11.3 1032.6,11.3 Z" fill="#44616B"></path>
                            <path d="M1042.2,0.3 L67.1,0.3 C35.6,0.3 10,25.9 10,57.4 L10,1466 C10,1497.5 35.6,1523.1 67.1,1523.1 L1042.2,1523.1 C1073.7,1523.1 1099.3,1497.5 1099.3,1466 L1099.3,57.4 C1099.3,25.8 1073.7,0.3 1042.2,0.3 Z" fill="#FCD2BB"></path>
                            <path d="M1000.4,1248.8 C986.8,1259.4 974.4,1271.7 965,1286.2 C953.4,1304.3 946.8,1325.2 942.3,1346.2 C931.8,1394.9 931.3,1446 913.9,1492.7 C910,1503.1 905.3,1513.2 900,1523.1 L1042.2,1523.1 C1073.7,1523.1 1099.3,1497.5 1099.3,1466 L1099.3,1212.8 C1098.9,1212.8 1098.6,1212.8 1098.2,1212.8 C1062.8,1212.2 1028.4,1227.1 1000.4,1248.8 Z" fill="#BC917A"></path>
                            <path d="M1115.1,90.7 L1080.7,90.7 C1072.2,90.7 1065.3,97.6 1065.3,106.1 L1065.3,1549.2 C1065.3,1557.7 1072.2,1564.6 1080.7,1564.6 L1115.1,1564.6 C1123.6,1564.6 1130.5,1557.7 1130.5,1549.2 L1130.5,106.1 C1130.4,97.6 1123.6,90.7 1115.1,90.7 Z" fill="#273941"></path>
                            <path d="M1080.7,90.7 C1072.2,90.7 1065.3,97.6 1065.3,106.1 L1065.3,1549.2 C1065.3,1557.7 1072.2,1564.6 1080.7,1564.6 L1089.7,1564.6 L1089.7,90.7 L1080.7,90.7 Z" fill="#405A63"></path>
                        </g>
                        <g>
                            <path d="M1032.6,10.7 L57.5,10.7 C26,10.7 0.4,36.3 0.4,67.8 L0.4,1476.5 C0.4,1508 26,1533.6 57.5,1533.6 L1032.6,1533.6 C1064.1,1533.6 1089.7,1508 1089.7,1476.5 L1089.7,67.8 C1089.7,36.3 1064.1,10.7 1032.6,10.7 Z" id="Path" fill="#44616B"></path>
                            <path d="M1032.6,0.3 L57.5,0.3 C26,0.3 0.4,25.9 0.4,57.4 L0.4,1466 C0.4,1497.5 26,1523.1 57.5,1523.1 L1032.6,1523.1 C1064.1,1523.1 1089.7,1497.5 1089.7,1466 L1089.7,57.4 C1089.7,25.8 1064.1,0.3 1032.6,0.3 Z" id="Path" fill="#273941"></path>
                            <g transform="translate(51.000000, 95.000000)" fill="#405A63" id="Rectangle">
                                <rect x="0.9" y="0" width="961.9" height="14.1"></rect>
                                <rect x="0.9" y="31.5" width="961.9" height="14.1"></rect>
                                <rect x="0.9" y="63.1" width="961.9" height="14.1"></rect>
                                <rect x="0.9" y="94.7" width="961.9" height="14.1"></rect>
                            </g>
                            <g transform="translate(51.000000, 1312.000000)" fill="#405A63" id="Rectangle">
                                <rect x="0.9" y="0.2" width="961.9" height="14.1"></rect>
                                <rect x="0.9" y="31.7" width="961.9" height="14.1"></rect>
                                <rect x="0.9" y="63.3" width="961.9" height="14.1"></rect>
                                <rect x="0.9" y="94.9" width="961.9" height="14.1"></rect>
                            </g>
                            <path d="M1115.1,21 L1080.7,21 C1072.2,21 1065.3,27.9 1065.3,36.4 L1065.3,1518.2 C1065.3,1526.7 1072.2,1533.6 1080.7,1533.6 L1115.1,1533.6 C1123.6,1533.6 1130.5,1526.7 1130.5,1518.2 L1130.5,36.4 C1130.4,27.9 1123.6,21 1115.1,21 Z" id="Path" fill="#273941"></path>
                            <path d="M1080.7,21 C1072.2,21 1065.3,27.9 1065.3,36.4 L1065.3,1518.2 C1065.3,1526.7 1072.2,1533.6 1080.7,1533.6 L1089.7,1533.6 L1089.7,21 L1080.7,21 Z" id="Path" fill="#44616B"></path>
                            <path d="M998,1478.4 L67.7,1478.4 C53.4,1478.4 41.8,1466.8 41.8,1452.5 L41.8,85.6 C41.8,71.3 53.4,59.7 67.7,59.7 L998,59.7 C1012.3,59.7 1023.90064,71.3 1023.90064,85.6 L1023.90064,1452.4 C1024,1466.7 1012.3,1478.4 998,1478.4 Z M67.7,69.9 C59,69.9 51.9,77 51.9,85.7 L51.9,1452.5 C51.9,1461.2 59,1468.3 67.7,1468.3 L998,1468.3 C1006.7,1468.3 1013.8,1461.2 1013.8,1452.5 L1013.8,85.6 C1013.8,76.9 1006.7,69.8 998,69.8 L67.7,69.8 L67.7,69.9 Z" id="Shape" fill="#FCD96A"></path>
                        </g>
                    </g>
                    <g transform="translate(278.000000, 540.000000)" fill="#FCD96A">
                        <g id="Group" transform="translate(64.000000, 63.000000)">
                            <path d="M0.6,161.5 C11.3,153.5 22.2,145.6 32.8,137.4 C37,134.2 40.5,130.7 35.2,124.8 C31.9,121.1 38,110.3 43,110.5 C44.1,110.5 45.8,112.3 46.2,113.7 C47.8,118.5 49.2,123.3 50.1,128.2 C50.4,129.7 49.5,132.2 48.3,133.1 C42.5,137.5 36.5,141.7 30.3,145.5 C20.5,151.5 10.5,157.1 0.6,162.9 C0.6,162.4 0.6,161.9 0.6,161.5 Z" id="Path"></path>
                            <path d="M180.5,338.9 C170.1,343.2 161.6,346.9 152.9,350.2 C137.7,355.9 121.9,359.2 105.5,357.9 C79.7,355.9 63.5,338.2 64.7,312.4 C65.2,302 67.4,291.7 68.9,280.3 C66.4,282.2 64.5,283.6 62.6,285 C58.5,288.1 54.7,291.7 50.3,294.3 C38.3,301.3 26.9,297 22.4,283.9 C18.1,271.5 18.8,258.8 23.1,246.9 C27.6,234.5 29.8,224 21.7,211.4 C17.7,205.1 18.5,193.4 21.3,185.6 C26.7,170.6 35,156.6 42.2,142.3 C42.5,141.6 43.5,141.2 45.3,141.3 C44.4,143.6 43.6,145.9 42.6,148.1 C36.5,162 30,175.8 24.4,189.9 C21.6,196.9 21.2,205.1 28,210.3 C34.8,215.4 42.6,212.3 48,207.9 C69.3,190.6 90,172.5 111.9,153.7 C103.1,147 96,141.4 88.7,136 C77.9,128 66.9,120.3 56.3,112.1 C48.9,106.4 46.7,98.4 50.2,89.9 C52,85.7 55.4,81.4 59.2,79 C68.1,73.5 77.7,69.1 87.1,64.2 C89.2,63.1 91.3,61.9 94.2,60.2 C87.9,54.6 83.8,48.5 88,40.5 C89.4,37.9 91.4,34.6 93.9,33.7 C123.9,22.6 154,12 184.1,1.2 C185.1,0.9 186.2,1.1 187.3,1 C187.6,1.5 187.8,2.1 188.1,2.6 C185.7,4 183.4,5.7 180.9,6.7 C155.2,16.5 129.4,26.2 103.7,36 C103.1,36.2 102.4,36.5 101.8,36.7 C89.6,41.8 89.6,42.4 95.4,54 C97.6,58.4 100.1,58.2 104,57 C133.8,48 163.6,39 193.4,30.3 C201.8,27.9 210.4,26.4 219,24.9 C222.9,24.2 227.1,24 231,24.3 C242.3,25.3 249.1,35 245.4,45.7 C243.4,51.5 240.4,57.5 236.2,61.9 C220.8,78.1 204.8,93.7 188.5,109.1 C192.7,96.7 199.9,86.5 209.4,77.9 C217,71 225.2,64.7 232.8,57.8 C240.6,50.7 239.6,44.2 229.4,41.5 C222.3,39.7 214.2,39.5 207,40.8 C157.6,50.1 110.8,67.2 65.4,88.3 C62.3,89.7 59.6,92.1 55.5,94.8 C59.2,97.4 61.6,99.2 64.2,100.8 C85,113.5 105.8,126.3 126.8,138.8 C129.1,140.2 132.4,141.5 134.7,140.9 C142.3,138.9 149.7,136.4 156.9,133.2 C158.3,132.6 159.1,128.3 158.8,126 C156.3,110.3 153,94.7 150.7,79 C149.8,72.8 151.1,66.3 151.4,60 C152.2,59.9 153,59.7 153.8,59.6 C159,68.8 164.3,77.9 169.5,87.1 C169,87.5 168.6,87.9 168.1,88.4 C166,87.6 164,86.9 161.9,86.1 C157.5,98.5 165.9,122.4 176.7,129.3 C180.1,131.5 184.1,133 186.9,135.8 C189.4,138.3 191.7,142 192,145.3 C192.7,152.9 190.3,154 183.1,151.6 C171.7,147.9 160.1,146.9 148.8,151.1 C148.4,152 148.1,152.8 147.7,153.7 C171.2,170.4 194.6,187 219.7,204.9 C220.2,200 220.8,197.3 220.8,194.7 C219.9,166.3 218.8,137.8 218,109.4 C217.8,102.1 217.3,94.5 223.1,87.5 C228.8,100.9 234.9,113.5 237.8,127.2 C237.2,127.5 236.7,127.9 236.1,128.2 C233.7,126 231.3,123.9 228.2,121 C228,123.1 227.6,124.7 227.7,126.2 C228.9,151.3 230,176.3 231.5,201.4 C232.4,215.9 243.7,224.7 258.3,223 C272.9,221.3 276.7,217.2 275.6,202.6 C272.6,162.4 269.1,122.2 265.9,82.1 C264.5,64.9 262.9,47.7 261.9,30.5 C261.6,24.9 262.7,19.2 264.5,13.2 C272.9,24.7 278.8,36.9 282.3,50.3 C281.8,50.7 281.2,51.1 280.7,51.5 C278,48.6 275.3,45.7 271.2,41.3 C272.2,53.4 273.2,63.7 274,74.1 C277,113.8 280.1,153.6 282.8,193.3 C283.3,199.9 282.7,206.8 281.6,213.4 C278.9,231.1 268.1,239.4 250.1,237.9 C244.6,237.4 239.1,236.1 232.7,235 C236,267.6 238.8,299.8 229.4,331.4 C228.8,331.5 228.2,331.5 227.6,331.6 C227.3,329.6 227,327.7 226.8,325.7 C226.6,323.7 226.7,321.7 226.6,319.7 C225.6,290.8 224.5,262 223.6,233.1 C223.4,228 221.7,224.5 217.5,221.4 C197.6,206.5 178,191.2 158.3,176.1 C156,174.4 153.6,172.8 150.1,171.9 C151.3,174.3 152.6,176.7 153.7,179.2 C156.6,185.9 160.6,192.5 162.2,199.5 C166.6,218.7 158.6,233 140.4,240.2 C135.4,242.2 130.1,243.2 125.1,245.2 C114.9,249.2 104.4,252.8 94.9,258 C72.3,270.4 64,300 75.9,323.2 C81.9,334.9 92.7,340.2 104.8,341.5 C115.1,342.7 126,342.9 136.1,341 C158.2,337 178.1,327 196.1,313.7 C206.8,305.8 207.3,303.4 203.2,291 C199.2,278.9 194.5,267 191.1,254.7 C189.4,248.6 190,241.8 189.6,235.4 C190.5,235.2 191.3,234.9 192.2,234.7 C198.2,241.9 204.2,249.1 211.2,257.5 C207,257.5 204.9,257.5 202,257.5 C202.5,260 202.7,262.4 203.3,264.5 C204.9,269.8 206.9,275.1 208.6,280.4 C213.9,297.9 210.8,313.1 196.8,325.6 C186.5,334.8 181.6,346.4 182,360.2 C182.2,366.3 183.1,372 188.9,375.3 C195.1,378.8 200.5,375.8 204.9,372 C212.7,365.3 220.8,358.6 227.1,350.7 C242.1,331.7 260.5,317.8 283.1,309.4 C286.2,308.2 289.2,306.5 292.3,305.4 C298,303.5 300,299.5 300.3,293.7 C300.8,285.7 300.9,277.3 303.4,269.8 C305.4,263.6 309.9,257.7 314.6,253.1 C318.9,248.9 323.8,250.4 326.9,255.8 C331.9,264.4 334.2,273.5 330.9,283.5 C327.3,294 322.5,303.7 313.2,310.3 C320.5,319.5 325.3,321.4 333.7,318.5 C348.1,313.5 352.2,309.5 351.6,298 C349.2,251.9 346.6,205.9 344,159.8 C342.5,133.6 340.6,107.5 339.2,81.3 C338.9,74.9 340.2,68.4 340.8,61.9 C341.8,61.8 342.9,61.7 343.9,61.5 C348.7,73.2 353.6,84.9 358.4,96.7 C357.7,97.2 357,97.6 356.3,98.1 C353.9,95.9 351.4,93.6 347.8,90.3 C348.8,105 349.8,118.4 350.6,131.9 C353.7,181.3 360.1,230.5 357.8,280.1 C357.3,291.3 355.3,302.7 352.4,313.6 C350.2,321.9 343.9,328.2 336,332.3 C324,338.5 313.7,335.2 308.6,322.7 C305.9,316.1 302.5,315.5 296.7,317.7 C269.8,327.7 245.7,341.5 227.8,364.9 C222.9,371.2 217.2,377.2 211,382.2 C201.2,390.2 189.6,387.7 182.9,376.9 C178,369.1 177,360.6 178.4,351.7 C179.3,347.6 179.8,344 180.5,338.9 Z M122.9,161.5 C119.7,163.8 116.8,165.6 114.4,167.8 C100.3,180.2 86.4,192.9 72.2,205.2 C61.8,214.2 52.1,224.5 37.9,227.9 C36.4,228.3 34.6,229.8 33.9,231.2 C26.5,245.1 22.5,259.9 24.7,275.7 C25.6,282.1 29.7,285.5 36,284.2 C41.5,283 47.2,280.8 51.7,277.4 C60.3,271 68.2,263.7 76.1,256.4 C87.3,246.1 100,238.4 114.5,233.7 C123,230.9 131.6,228.5 140.1,225.5 C145.3,223.6 150.4,221.3 155.3,218.5 C160.1,215.8 161.2,211.6 158.4,206.5 C149.2,189.7 138,174.5 122.9,161.5 Z M305.5,281 C306,283.7 306.6,288.6 308.1,293.2 C308.6,294.8 311.7,296.9 313,296.5 C322.9,293.8 327.7,283.8 323.7,274.4 C321.9,270.2 319.8,266 314.1,267 C308.4,268.1 305.1,272.7 305.5,281 Z" id="Shape"></path>
                            <path d="M305.1,31 C310,42.7 315,54.4 319.9,66 C319.4,66.3 319,66.5 318.5,66.8 C316,65.2 313.5,63.6 309.4,60.9 C311.7,92.3 313.9,121.9 316.2,151.9 C324.9,149.1 325.8,147.1 322.4,141.5 C317.9,134.1 320.4,128.6 329.6,125.9 C334.6,134.2 333.2,145.4 326.3,151.5 C320.8,156.4 318.2,162.2 317.7,169.7 C316.9,181.5 315.3,193.2 313.9,205 C313.7,206.9 312.8,208.8 310.6,210.6 C309.7,196.8 308.9,183.1 307.9,168.1 C301.6,170.8 296.6,172.9 291.7,175 C291.4,174.6 291.2,174.2 290.9,173.7 C294.7,170.9 298.4,168 302.4,165.4 C306.5,162.6 307.9,159.2 307.6,154 C305.3,117.6 303.2,81.2 301.3,44.8 C301.1,40.3 302,35.8 302.4,31.3 C303.2,31.3 304.2,31.2 305.1,31 Z" id="Path"></path>
                            <path d="M372.5,97.8 C380.3,109.4 384.5,121.8 388.4,134.3 C387.6,134.9 386.7,135.6 385.9,136.2 C384.2,133.2 382.6,130.1 380.9,127.1 C380.1,127.6 379.2,128.1 378.4,128.6 C379,140.3 379.7,152 380.2,163.7 C381.8,194.8 383.9,225.8 384.5,256.9 C384.7,267.4 381.3,278 379.5,288.5 C379.3,289.9 378.2,291.1 377.4,292.8 C374.7,283.9 369.7,102.7 372.5,97.8 Z" id="Path"></path>
                            <path d="M317.2,225.8 C330.4,216.4 332.1,216.1 336.6,222.1 C340.4,227.2 339.5,229.6 330.6,236.7 C326.7,234 322.7,231.3 318.3,228.3 C314.7,231.6 311.2,234.9 307.3,238.6 C304,235.1 301.1,232 297.8,228.5 C300.9,224.5 303.7,220.9 306.9,216.9 C310.6,220.1 313.9,222.9 317.2,225.8 Z" id="Path"></path>
                            <path d="M137.2,266.5 C139.8,264.2 142.3,261.8 145,259.5 C155.5,250.4 166,241.3 176.4,232.2 C180.7,228.5 182.1,224.5 179.5,218.6 C178.1,215.4 178.8,210.2 180.5,206.9 C182.7,202.8 186.6,204 188.1,208.6 C189.5,213.2 191.3,217.7 192.3,222.3 C192.6,223.6 190.8,225.7 189.5,226.8 C186.9,228.9 183.4,230 181.2,232.4 C168.8,246.4 154,257.5 138.6,267.9 C138.1,267.4 137.7,266.9 137.2,266.5 Z" id="Path"></path>
                            <path d="M113,311 C113.2,311.4 113.4,311.7 113.3,311.8 C111,315 108.8,318.2 106.5,321.4 C104.3,317.9 100.6,314.5 100.2,310.8 C99.6,304.7 101.1,298.4 101.8,292.2 C102,290.1 102.3,287.9 102.7,284.4 C96.8,287.2 92.2,289.4 87.5,291.6 C87.1,290.9 86.7,290.2 86.3,289.5 C98.3,278.4 113.3,271.7 127.3,263.5 C127.8,264.2 128.4,264.9 128.9,265.5 C125.5,268.4 122.5,271.9 118.7,274 C108.2,279.8 104.3,289.1 104,300.1 C103.9,304.8 105.6,309.5 106.7,315.3 C109.6,313.3 111.3,312.2 113,311 Z" id="Path"></path>
                            <path d="M287.9,282.1 C276.7,285.9 265.6,289.7 254.4,293.5 C254.1,293.1 253.8,292.7 253.5,292.3 C255.3,290.1 257,288 258.1,286.7 C257.2,282.4 254.6,277.4 256.1,275.4 C260.1,270.1 265.7,265.9 271.2,261.9 C272.2,261.2 275.2,263.2 277.3,264 C275.6,265.3 273.9,266.6 272,267.7 C271.3,268.1 270,267.5 269.4,267.9 C266.7,269.8 264.1,271.8 261.5,273.8 C264.1,275.3 266.7,277.9 269.5,278.2 C275.3,278.9 281.3,278.4 287.2,278.4 C287.4,279.6 287.7,280.8 287.9,282.1 Z" id="Path"></path>
                            <path d="M306.6,356.8 C296.5,349.6 295.4,349.9 291.9,360 C289.9,365.6 288.1,371.3 285.7,378.5 C283.7,374.5 282.8,371.5 280.9,369.2 C277.9,365.5 274.3,362.3 270.9,358.9 C269.8,357.8 267.8,357.2 267.4,356 C266.5,353.2 266.3,350.2 265.8,347.3 C268.3,348 271.5,348 273.1,349.6 C278,354.4 282.2,359.7 287.3,365.5 C287.9,363.8 288.4,362 289.1,360.3 C290.9,355.8 292.5,351.1 294.8,346.8 C295.9,344.7 298.5,343.5 300.4,341.8 C302.2,344 304.4,345.9 305.6,348.3 C306.6,350.5 306.2,353 306.6,356.8 Z" id="Path"></path>
                            <path d="M121.5,121.1 C120,118.5 118.9,115.4 116.9,113.3 C113.6,109.8 109.4,107.1 106,103.6 C104.1,101.7 102.6,99.2 101.6,96.7 C101.2,95.8 102.8,92.9 103.2,93 C105.5,93.3 108.2,93.6 109.8,95 C113.9,98.6 117.6,102.8 122.3,107.7 C124.1,100.5 125.1,94.6 127.1,89 C128,86.4 131.9,82.2 132.6,82.6 C136.7,84.4 137.7,88.2 135.7,93 C133.6,92.1 131.9,91.3 129,90 C127.2,100.6 125.4,110.8 123.7,121 C122.9,121 122.2,121.1 121.5,121.1 Z" id="Path"></path>
                            <path d="M154.4,295 C151.7,297.7 149.5,301.7 146.2,302.7 C142.5,303.8 133.8,295 134.6,291.8 C135.5,287.8 136.5,283.1 142.1,283.1 C146.7,283.1 153.4,289.9 154.4,295 Z" id="Path"></path>
                            <path d="M226.5,13.9 C229,12.3 231.4,10.7 233.9,9.2 C233.7,8.5 233.6,7.8 233.4,7.1 C228.5,7.3 223.6,7.5 218.8,7.8 C222.6,1.2 233.4,-2.1 239.7,1.5 C243.1,3.4 244.4,6.3 240.9,8.8 C236.7,11.7 231.9,13.7 227.3,16.1 C227,15.4 226.8,14.6 226.5,13.9 Z" id="Path"></path>
                            <path d="M176.3,266.8 C176.2,277.3 169.8,286.3 177.9,294.9 C179.8,293.5 181.3,292.3 182.9,291.1 C182.6,296.2 181.7,301.7 175.9,301.4 C170.5,301.1 169.8,295.6 169.6,291 C169.4,282.9 171,275.2 176.3,266.8 Z" id="Path"></path>
                            <path d="M257.4,163.5 C255.9,169 254.3,174.6 253,180.1 C251.7,185.7 251.9,190.6 261.1,191.5 C259,193.9 256.9,196.3 254.8,198.7 C252.9,196.6 249.7,194.6 249.5,192.2 C249,187.2 249.3,181.8 250.5,176.8 C251.6,171.9 254.1,167.4 256.1,162.7 C256.5,163 256.9,163.3 257.4,163.5 Z" id="Path"></path>
                            <path d="M68.9,143.8 C67.7,150.3 66,156.8 65.4,163.4 C64.9,169.7 66.6,170.6 72.8,168.6 C73.3,169 73.8,169.4 74.3,169.9 C72,172.5 69.6,175.1 67.3,177.7 C65,174.2 60.5,170.5 60.8,167.3 C61.7,159.1 64.8,151.1 67.1,143.1 C67.8,143.4 68.3,143.6 68.9,143.8 Z" id="Path"></path>
                            <path d="M399.7,169.9 C399.2,180.3 389.7,189.8 397.5,201.3 C399.3,200.3 400.6,199.5 403,198 C401.6,201.6 400.8,204.2 399.5,206.4 C398.7,207.8 396.5,209.7 395.8,209.4 C394.2,208.8 392.3,206.9 392.1,205.4 C390.6,192.9 393,180.9 399.7,169.9 Z" id="Path"></path>
                            <path d="M299.4,244.2 C292.9,247.8 287.7,250.7 282.6,253.6 C282.2,253 281.8,252.4 281.4,251.8 C283.2,250.6 285,249.4 286.8,248.2 C286.6,247.6 286.4,247 286.2,246.4 C282.4,246 278.5,245.7 274.3,245.3 C279,239.1 288.8,238.3 299.4,244.2 Z" id="Path"></path>
                            <path d="M208,149.9 C206.4,155.4 204.2,160.8 203.3,166.5 C202.7,170.6 202.8,175.9 210.1,172.6 C210,173.9 210.2,174.8 209.8,175.2 C207.6,177.3 205.2,179.4 202.9,181.4 C201.6,178.5 199,175.6 199.1,172.8 C199.3,164.1 202,156.2 208,149.9 Z" id="Path"></path>
                            <path d="M197.9,50.3 C194.9,58.1 192,65.9 188.4,75.2 C192.7,74.5 194.5,74.3 197.4,73.8 C195.6,76.9 194.6,79.5 192.8,81.5 C192.1,82.2 189.2,81.8 188,80.9 C186.8,80 185.8,77.8 185.8,76.3 C186,65.9 191,57.7 197.9,50.3 Z" id="Path"></path>
                            <path d="M250,78.4 C251,85.3 243.6,94.1 256.4,99.1 C253.6,102 251.5,104.2 249.4,106.4 C247.7,103.8 244.6,101.1 244.7,98.5 C245.1,91.6 246.9,84.8 248.1,78 C248.7,78.1 249.3,78.3 250,78.4 Z" id="Path"></path>
                            <path d="M11.6,224.6 C8.9,223.6 7.3,223 5.4,222.4 C6.4,218 8.6,214.6 12.9,216.2 C14.3,216.7 15.5,222.3 14.5,224.6 C11.6,231.3 7.5,237.6 3.8,244 C3.2,243.7 2.7,243.4 2.1,243.1 C5.2,237.1 8.3,231.1 11.6,224.6 Z" id="Path"></path>
                            <path d="M294.3,98 C292,99.8 289.7,101.6 287.4,103.4 C285.9,100.7 283,98 283.1,95.4 C283.3,89.8 285,84.2 287.6,78.8 C287.6,84.5 287.6,90.2 287.6,96.5 C289.8,96.5 291.5,96.5 293.1,96.5 C293.5,97.1 293.9,97.5 294.3,98 Z" id="Path"></path>
                            <path d="M48.3,328.9 C45.8,322.1 56.4,315.6 45.1,309.6 C46.7,308.2 48,306.3 49.7,305.5 C51.1,304.8 53.5,304.8 54.6,305.6 C55.6,306.3 56.3,308.9 55.8,310.2 C53.6,316.5 50.9,322.7 48.3,328.9 Z" id="Path"></path>
                            <path d="M57.6,48.3 C58.3,55.4 48.8,63.1 59.6,71.6 C58.4,72.8 56.7,74.8 54.7,76.9 C48.9,68.9 50.9,55.7 57.6,48.3 Z" id="Path"></path>
                            <path d="M241.8,368.5 C242.9,366.6 243.5,365 244.6,364 C245.6,363 247.7,361.7 248.4,362.1 C249.7,362.8 250.9,364.7 251,366.2 C251.5,373.6 248,379.2 241.6,385.2 C244.1,379.4 246,375.1 248.1,370.4 C245.3,369.6 243.7,369.1 241.8,368.5 Z" id="Path"></path>
                            <path d="M19.2,117.6 C19.8,120.1 20.4,122.5 21.2,125.5 C22.7,125.1 24.3,124.7 25.8,124.3 C26.1,124.7 26.5,125.1 26.8,125.5 C24.2,127.9 21.6,130.3 19,132.7 C18.5,132.4 17.9,132.2 17.4,131.9 C17.4,127.2 17.4,122.5 17.4,117.7 C17.9,117.7 18.5,117.6 19.2,117.6 Z" id="Path"></path>
                            <path d="M128.2,218.1 C123.6,214.7 119.3,211.5 114.5,207.9 C111.1,211.6 107.8,215.1 104.2,219.1 C99.6,215.7 95.2,212.4 90.9,209.2 C94.7,196.4 97.5,195.9 113.2,204.9 C116.8,201.8 119.9,197.8 124,196 C125.6,195.3 129.7,198.9 132.1,201.1 C137.1,205.6 136.2,209.1 128.2,218.1 Z" id="Path"></path>
                            <path d="M64.8,221.7 C64.2,229.8 54.8,237.8 64.5,246.5 C65.8,245.7 67.3,244.8 69,243.7 C68.4,248.9 66.6,254 61.6,253.6 C55.9,253.1 57.1,247 57.6,243.2 C58.7,235.7 60.7,228.4 62.4,220.9 C63.2,221.1 64,221.4 64.8,221.7 Z" id="Path"></path>
                        </g>
                        <path d="M261,520.4 C191.5,520.4 126.2,493.3 77,444.2 C27.9,395.1 0.8,329.7 0.8,260.2 C0.8,190.7 27.9,125.4 77,76.2 C126.1,27.1 191.5,0 261,0 C330.5,0 395.8,27.1 445,76.2 C494.1,125.3 521.2,190.7 521.2,260.2 C521.2,329.7 494.1,395 445,444.2 C395.8,493.3 330.5,520.4 261,520.4 Z M261,9.2 C193.9,9.2 130.9,35.3 83.5,82.7 C36.1,130.1 10,193.2 10,260.2 C10,327.3 36.1,390.3 83.5,437.7 C130.9,485.1 193.9,511.2 261,511.2 C328.1,511.2 391.1,485.1 438.5,437.7 C485.9,390.3 512,327.3 512,260.2 C512,193.1 485.9,130.1 438.5,82.7 C391.1,35.3 328.1,9.2 261,9.2 Z" id="Shape"></path>
                    </g>
                    <g transform="translate(411.000000, 349.000000)" fill="#FCD96A" id="Shape">
                        <g transform="translate(1.000000, 0.000000)">
                            <path d="M127.1,171.4 L95.2,110.3 L129.6,0.3 L157,111 L127.1,171.4 Z M104.1,109.4 L127,153.2 L148.4,110 L128.7,30.6 L104.1,109.4 Z"></path>
                            <path d="M136.2,176.4 L168.5,112.6 L253.8,48.3 L207.5,154.1 L136.2,176.4 Z M175,118 L152.3,162.8 L201.5,147.4 L233.8,73.7 L175,118 Z"></path>
                            <path d="M117.6,176.4 L46.3,154.1 L1.13686838e-13,48.3 L85.3,112.6 L117.6,176.4 Z M52.3,147.4 L101.5,162.8 L78.8,118 L20,73.7 L52.3,147.4 Z"></path>
                        </g>
                        <g transform="translate(0.000000, 726.000000)">
                            <path d="M130.6,176.3 L96.2,66.3 L128.1,5.2 L158,65.6 L130.6,176.3 Z M105.1,67 L129.7,145.8 L149.4,66.4 L128,23.2 L105.1,67 Z"></path>
                            <path d="M254.9,128.1 L169.6,63.8 L137.3,0 L208.6,22.3 L254.9,128.1 Z M176,58.4 L234.8,102.7 L202.5,29 L153.3,13.6 L176,58.4 Z"></path>
                            <path d="M0.9,128.1 L47.2,22.3 L118.5,0 L86.2,63.8 L0.9,128.1 Z M53.3,29 L21,102.7 L79.8,58.4 L102.5,13.6 L53.3,29 Z"></path>
                        </g>
                    </g>
                    <g transform="translate(87.000000, 673.000000)" fill="#FCD96A" id="Shape">
                        <g transform="translate(726.000000, 0.000000)">
                            <path d="M66.1,157.3 L5.7,127.4 L66.8,95.5 L176.8,129.9 L66.1,157.3 Z M23.9,127.2 L67.1,148.6 L146.5,128.9 L67.7,104.3 L23.9,127.2 Z"></path>
                            <path d="M128.8,254.2 L23,207.9 L0.7,136.6 L64.5,168.9 L128.8,254.2 Z M29.7,201.9 L103.4,234.2 L59.1,175.4 L14.3,152.7 L29.7,201.9 Z"></path>
                            <path d="M0.7,117.9 L23,46.6 L128.8,0.3 L64.5,85.6 L0.7,117.9 Z M29.7,52.6 L14.3,101.8 L59.1,79.1 L103.4,20.3 L29.7,52.6 Z"></path>
                        </g>
                        <g>
                            <path d="M111.7,157.3 L0.9,129.9 L110.9,95.5 L172,127.4 L111.7,157.3 Z M31.3,129 L110.7,148.7 L153.9,127.3 L110.1,104.4 L31.3,129 Z"></path>
                            <path d="M49,254.2 L113.3,168.9 L177.1,136.6 L154.8,207.9 L49,254.2 Z M118.7,175.3 L74.4,234.1 L148.1,201.8 L163.5,152.6 L118.7,175.3 Z"></path>
                            <path d="M177.1,117.9 L113.3,85.6 L49,0.2 L154.8,46.5 L177.1,117.9 Z M118.7,79.1 L163.5,101.8 L148.1,52.6 L74.4,20.3 L118.7,79.1 Z"></path>
                        </g>
                    </g>
                </g>
                <path d="M1128.3,102 C1112.3,102 1099.3,115 1099.3,131 L1099.3,1372.4 C1099.3,1388.4 1112.3,1401.4 1128.3,1401.4 L1130.5,1401.4 L1130.5,102 L1128.3,102 Z" id="Path" fill="#FCD96A"></path>
            </g>
            <g transform="translate(678.000000, 442.000000)" id="Path">
                <g transform="translate(176.000000, 0.000000)">
                    <path d="M365.9,263.9 C368.3,253.3 352,248.2 349.6,258.9 C316.3,408.7 310.6,562.8 312.7,715.7 C313.3,759 314.5,802.3 315.8,845.5 C316.1,856.4 333.1,857 332.8,846 C328.2,694.5 325.2,542.1 344,391.4 C349.3,348.7 356.5,306.1 365.9,263.9 Z" fill="#5C6032"></path>
                    <path d="M343.9,391.5 C349.3,348.7 356.5,306.1 365.8,264 C368.2,253.4 351.9,248.3 349.5,259 C336.5,317.4 327.8,376.5 322,435.9 C327.2,438.3 332.8,439.8 338.5,440.3 C340.2,423.9 341.9,407.7 343.9,391.5 Z" fill="#262612"></path>
                    <g transform="translate(172.000000, 0.000000)">
                        <g>
                            <path d="M69.8,40.3 C80.1,36.1 91.2,33.6 102.3,33.1 C119,32.3 135.5,35.8 151.8,39.3 C194.4,48.5 237.1,58.5 276.9,76.2 C316.7,93.9 353.7,120.1 377.9,156.3 C382.4,163 386.4,170.1 388.2,178 C391.6,193.4 385.7,209.6 376.7,222.5 C369.7,232.6 360.8,241.4 350.5,248 C334.8,258.1 316.4,262.9 298.2,267 C276.9,271.8 255.5,275.9 234,279.3 C205.8,283.7 177,286.7 148.8,282.4 C120.6,278 92.8,265.5 74.8,243.3 C54.4,218.1 49.2,184.3 44.7,152.2 C41.2,127.3 41.5,105.1 43.5,80.2 C44.1,73 42.4,66.7 45.6,59.9 C50,50.5 60.5,44.1 69.8,40.3 Z" fill="#704C93"></path>
                            <path d="M193.9,0.9 C198.3,1.9 202.3,4.3 206.6,5.7 C215,8.5 224.2,7.3 233,7 C241.9,6.7 251.5,7.5 258.2,13.3 C264.5,18.8 266.9,27.5 271.5,34.4 C275.4,40.2 281,44.9 284.4,51 C288.2,57.8 289,65.8 290.5,73.4 C290.8,74.8 291.1,76.3 292.2,77.2 C293.2,78 294.5,78.3 295.8,78.5 C306.3,79.9 317.1,79.7 327.3,82.3 C337.6,84.9 347.8,91.2 351.3,101.2 C352.4,104.2 352.8,107.4 353.1,110.6 C355.7,135.3 353.8,162.7 337.3,181.3 C327.9,191.9 314.8,198.5 301.4,203.3 C265.1,216.4 223,217.5 189.2,198.9 C173.4,190.2 160.1,177.8 147.6,164.9 C142.4,159.5 137.2,154 133.4,147.6 C125.5,134.1 124.2,117.6 126.7,102.1 C130.8,76.8 143.8,54.5 152.8,30.8 C159.1,14.9 174.7,-3.5 193.9,0.9 Z" fill="#8B5CB7"></path>
                            <path d="M226.7,38.6 C233.8,39 241.4,40.9 245.8,46.4 C249,50.5 250,55.9 252.9,60.3 C259.3,70.2 272.8,72 284.5,72.6 C291.2,73 302.1,71.8 307.2,76.1 C311.3,79.6 311.5,82 312.8,87.3 C315.2,97.4 314.1,112.6 313.4,122.9 C313.1,127.5 312.4,132.3 309.8,136.1 C307.6,139.5 304.1,141.9 300.5,143.9 C276.8,157.2 247.5,155 220.8,150.1 C193.2,145.1 172.5,134.2 169.7,104.1 C168,85.1 166,64.3 183.2,51.9 C195.6,43.1 211.5,37.8 226.7,38.6 Z" fill="#583B7A"></path>
                            <path d="M275.7,87.8 C270.4,82.2 263.2,78.8 256.1,76 C247.9,72.8 239.4,70.3 230.8,68.5 C221.7,66.6 211.9,65.5 203.6,69.7 C192.8,75.1 187.7,89.7 192.7,100.7 L183.6,94.2 C188.2,108.6 193.8,124.3 207.1,131.6 C215.1,136 224.7,136.5 233.8,135.7 C247.4,134.5 261,130.4 271.9,122.1 C276.4,118.7 280.5,114.3 282.1,108.9 C284.2,101.5 281,93.4 275.7,87.8 Z" fill="#8B5CB7"></path>
                            <path d="M243,119.3 C241.4,116.4 239.9,112.1 242.7,110.3 C243.5,109.8 244.5,109.7 245.4,109.6 C251,109.4 256.7,112.2 262.1,110.6 C263.1,110.3 264.1,109.8 264.7,109 C265.5,107.8 265.2,106.1 264.7,104.7 C262.8,99.2 257.8,94.9 252.1,93.8 C244.9,92.3 236.2,95.2 231.1,89.9 C228.9,87.6 228,84.2 225.5,82.1 C222.4,79.5 217.9,79.9 214,80.7 C208,81.9 201.6,84.1 198.5,89.4 C194.9,95.5 197,103.3 195.6,110.3 C195.1,112.7 194.1,114.9 192.8,117 C196.3,123.1 200.8,128.3 207,131.7 C215,136.1 224.6,136.6 233.7,135.8 C238.1,135.4 242.5,134.7 246.8,133.6 C246.8,133.4 246.8,133.3 246.8,133.1 C247,128.2 245.3,123.6 243,119.3 Z" fill="#583B7A"></path>
                            <path d="M144.2,71.9 C155.3,50.5 181.1,37.7 204.9,41.8 C192,47.2 186.2,63.4 189.1,77.1 C192,90.8 201.7,102.1 212.4,111 C221.9,118.8 232.9,125.5 245,127.2 C225.5,128.5 210,133.8 191.1,138.8 C182.5,141.1 173.3,143.7 164.8,141.1 C155.5,138.3 149.1,129.9 144.2,121.6 C140,114.4 136.4,106.6 135.3,98.3 C134.2,90 140.4,79.4 144.2,71.9 Z" fill="#412955"></path>
                            <path d="M212.4,111 C210.3,109.3 208.3,107.4 206.3,105.5 C203,105.4 199.8,105.5 196.5,105.9 C188,106.8 179.6,109.4 171.1,109.3 C169.5,109.3 167.8,109.1 166.5,108.1 C165.1,107 164.7,105 164.4,103.3 C161.4,85.5 162,67 166.1,49.4 C156.9,54.8 149.2,62.5 144.3,72 C140.4,79.4 134.3,90.1 135.4,98.4 C136.5,106.7 140.1,114.4 144.3,121.7 C149.2,130.1 155.6,138.4 164.9,141.2 C173.4,143.8 182.6,141.2 191.2,138.9 C210.1,134 225.6,128.6 245.1,127.3 C232.9,125.5 221.9,118.9 212.4,111 Z" fill="#2D1C3D"></path>
                            <path d="M190.3,111.4 C210.2,109.8 230.1,114.5 249.9,117.3 C263.4,119.2 277.5,120 290.1,114.8 C302.6,109.6 312.9,96.7 310.9,83.2 C320,101.5 327.6,122.8 320.5,141.9 C312.3,163.7 288.1,174.5 265.5,180.3 C252.8,183.6 239.7,186 226.6,184.8 C202,182.7 180.1,168.3 162.2,152.3 C152.5,143.6 143.5,136 154.3,124.7 C162.6,115.9 178.8,112.3 190.3,111.4 Z" fill="#412955"></path>
                            <path d="M169.8,128.3 C179.6,119.8 194.7,123.4 206.5,128.7 C222.6,136 237.6,145.7 254,152.4 C270.4,159.1 289.1,162.5 305.7,156.6 C327.6,148.9 341.1,127.4 352.3,107 C370.3,138.7 372,179.1 356.8,212.3 C341.6,245.5 309.9,270.5 274.2,277.7 C262.5,280 250.2,280.5 238.7,277.4 C221.1,272.6 206.7,259.5 196.6,244.4 C183.9,225.4 181.2,208.2 176.4,187.1 C172.6,169.4 150.6,145 169.8,128.3 Z" fill="#412955"></path>
                            <path d="M278.8,241.3 C277.2,226.9 275,212.1 267.6,199.7 C258.5,184.6 242.9,175 228.6,164.8 C220.4,159 212.4,152.8 204.7,146.3 C197.3,140.1 189.7,132.3 187.6,123.3 C181.1,122.8 174.8,124 169.8,128.3 C150.6,145 172.6,169.4 176.5,187 C181.3,208 184,225.3 196.7,244.3 C206.8,259.5 221.2,272.5 238.8,277.3 C250.3,280.5 262.6,280 274.3,277.6 C274.9,277.5 275.6,277.3 276.2,277.1 C277.3,274.5 278.1,271.9 278.7,269.2 C280.7,260.1 279.8,250.6 278.8,241.3 Z" fill="#2D1C3D"></path>
                            <path d="M58.3,146.5 C59,112.5 71.6,78.8 93.5,52.7 C115.4,26.6 146.3,8.3 179.7,1.8 C166.5,17.6 157.4,39.3 153.6,59.5 C149.7,79.7 152.5,101.5 163.4,118.9 C171.4,131.7 183.3,141.6 195,151.3 C208.1,162.1 221.1,172.9 234.2,183.7 C246,193.4 258,203.4 266.5,216.1 C275.1,228.8 279.9,244.8 275.8,259.6 C273.1,269.3 266.9,277.7 259.5,284.6 C230.2,312.1 183.7,316.2 146.5,300.9 C109.3,285.7 80.8,253.9 61.6,218.6 C48.9,195 43.8,169 58.3,146.5 Z" fill="#412955"></path>
                            <path d="M132.6,227.2 C122.6,198.6 106.3,172.8 93.1,145.6 C87.2,133.6 81.9,121.2 79.2,108.1 C77.1,98 76.6,87.6 77,77.2 C65.4,98.4 58.9,122.4 58.4,146.5 C43.9,169 49,195 61.8,218.5 C79.6,251.3 105.4,281 138.8,297.3 C143.9,274.5 140.4,249.6 132.6,227.2 Z" fill="#2D1C3D"></path>
                            <path d="M65.2,356.1 C40.4,317.8 15.7,278.2 5.3,233.8 C-9.7,169.7 8.5,98.8 52.4,49.9 C43.4,75.8 52,101.9 64.2,126.4 C76.1,150.1 96.6,168.3 111.3,190.5 C133,223.3 140.9,263.5 141.8,302.9 C142.1,314.8 141.7,327 136.9,337.9 C126.3,362.5 79.8,378.7 65.2,356.1 Z" fill="#412955"></path>
                            <path d="M137,337.9 C141.7,327 142.1,314.8 141.9,302.9 C141,264.7 133.5,225.8 113.2,193.5 C100,186.3 89.6,181.6 82.3,182.6 C70.7,184.1 59.8,196.6 50.5,212.4 C30.8,245.9 28.9,285.2 41.9,318.9 C49.4,331.5 57.3,343.9 65.2,356.2 C79.8,378.7 126.3,362.5 137,337.9 Z" fill="#2D1C3D"></path>
                            <path d="M61.1,237.6 C65.1,219 72.5,198.5 89.9,190.6 C101.9,185.2 116,187.1 128.2,192.1 C140.4,197 151.3,204.6 162.9,210.8 C189.2,224.6 218.7,230.6 248,235.8 C262.3,238.3 276.9,240.6 291.4,239.6 C331.1,236.9 364.5,210.2 395,184.7 C389.6,207.1 381.8,229 371.9,249.8 C366.1,262 359.3,274.1 349.4,283.4 C334.4,297.5 313.5,303.6 293.1,306.3 C248.5,312.2 200.5,302.6 166,273.8 C151.8,261.9 140.1,247.1 125.7,235.4 C111.3,223.6 92.9,214.8 74.6,218.2 C65.2,219.8 64.4,228.6 61.1,237.6 Z" fill="#8B5CB7"></path>
                            <path d="M111.3,393.6 C50.1,361.3 28.6,283.3 63.7,223.7 C73,207.9 83.9,195.5 95.5,193.9 C129.9,189.3 234.5,310.8 364.9,228.7 C375.9,221.8 378.9,206.1 391.4,202.5 C391.4,202.5 369.9,361.4 270.4,402.1 C216.5,424.1 157.4,418 111.3,393.6 Z" fill="#412955"></path>
                        </g>
                        <path d="M234.8,381.6 C230.1,381.5 229.9,388.8 234.6,388.9 C239.3,389.1 239.5,381.8 234.8,381.6 Z" fill="#8B5CB7"></path>
                        <path d="M278.3,364.3 C276.9,362.9 274.6,362.8 273.1,364.2 C272.7,364.6 272.4,364.9 272,365.3 C270.6,366.6 270.4,369.1 271.9,370.5 C273.3,371.9 275.6,372 277.1,370.6 C277.5,370.2 277.8,369.9 278.2,369.5 C279.5,368.1 279.7,365.7 278.3,364.3 Z" fill="#8B5CB7"></path>
                        <path d="M247.8,363.4 C247.4,363 247.1,362.7 246.7,362.3 C245.4,360.9 242.9,360.7 241.5,362.2 C240.1,363.6 240,365.9 241.4,367.4 C241.8,367.8 242.1,368.1 242.5,368.5 C243.8,369.9 246.3,370.1 247.7,368.6 C249,367.2 249.2,364.9 247.8,363.4 Z" fill="#8B5CB7"></path>
                        <path d="M293.8,342.9 C291.8,342.9 290.1,344.4 290.1,346.4 L290.1,347.5 C290,349.4 291.7,351.3 293.6,351.2 C295.6,351.2 297.3,349.7 297.3,347.7 L297.3,346.6 C297.4,344.8 295.8,342.9 293.8,342.9 Z" fill="#8B5CB7"></path>
                        <path d="M263.8,336.6 C262.4,335.2 260.1,335.1 258.6,336.5 C258.2,336.9 257.9,337.2 257.5,337.6 C256.1,338.9 255.9,341.4 257.4,342.8 C258.8,344.2 261.1,344.3 262.6,342.9 L263.7,341.8 C265.1,340.4 265.2,338 263.8,336.6 Z" fill="#8B5CB7"></path>
                        <path d="M312.9,323.8 L311.8,323.8 C309.9,323.7 308,325.4 308.1,327.3 C308.1,329.3 309.6,331 311.6,331 L312.7,331 C314.6,331.1 316.5,329.4 316.4,327.5 C316.4,325.6 314.9,323.9 312.9,323.8 Z" fill="#8B5CB7"></path>
                        <path d="M277.2,306 C276.1,304.2 274.1,303.7 272.3,304.6 C271.6,304.9 270.8,305.3 270.1,305.6 C268.4,306.4 267.7,308.9 268.7,310.5 C269.8,312.3 271.8,312.8 273.6,311.9 C274.3,311.6 275.1,311.2 275.8,310.9 C277.5,310.1 278.2,307.6 277.2,306 Z" fill="#8B5CB7"></path>
                        <path d="M300.3,306 C295.6,305.9 295.4,313.2 300.1,313.3 C304.8,313.4 305,306.1 300.3,306 Z" fill="#8B5CB7"></path>
                        <path d="M345.5,289.8 C340.8,289.7 340.6,297 345.3,297.1 C350,297.3 350.2,290 345.5,289.8 Z" fill="#8B5CB7"></path>
                        <path d="M293.4,320 C288.7,319.9 288.5,327.2 293.2,327.3 C297.8,327.4 298.1,320.1 293.4,320 Z" fill="#8B5CB7"></path>
                        <path d="M291.1,283.9 C286.4,283.8 286.2,291.1 290.9,291.2 C295.6,291.3 295.8,284.1 291.1,283.9 Z" fill="#8B5CB7"></path>
                        <path d="M314.4,272.6 C309.7,272.5 309.5,279.8 314.2,279.9 C318.9,280 319.1,272.7 314.4,272.6 Z" fill="#8B5CB7"></path>
                        <path d="M319.1,298.9 C314.4,298.8 314.2,306.1 318.9,306.2 C323.6,306.3 323.8,299 319.1,298.9 Z" fill="#8B5CB7"></path>
                        <path d="M335.2,309.2 C330.5,309.1 330.3,316.4 335,316.5 C339.6,316.6 339.9,309.3 335.2,309.2 Z" fill="#8B5CB7"></path>
                        <path d="M334.1,269.9 C329.4,269.8 329.2,277.1 333.9,277.2 C338.6,277.3 338.8,270 334.1,269.9 Z" fill="#8B5CB7"></path>
                        <path d="M358.6,254.2 C353.9,254.1 353.7,261.4 358.4,261.5 C363,261.6 363.3,254.3 358.6,254.2 Z" fill="#8B5CB7"></path>
                        <path d="M366.6,240.2 C361.9,240.1 361.7,247.4 366.4,247.5 C371.1,247.7 371.3,240.4 366.6,240.2 Z" fill="#8B5CB7"></path>
                        <path d="M341.1,252.6 C336.4,252.5 336.2,259.8 340.9,259.9 C345.6,260 345.8,252.7 341.1,252.6 Z" fill="#8B5CB7"></path>
                        <path d="M359.1,272.8 C354.4,272.7 354.2,280 358.9,280.1 C363.6,280.2 363.8,272.9 359.1,272.8 Z" fill="#8B5CB7"></path>
                    </g>
                    <path d="M331.7,535.1 C307,469.9 262.3,413.7 204,375.6 C194.8,369.6 185.8,384 195,390 C249.4,425.6 292.2,478.3 315.2,539.2 C316.8,543.5 320.6,546.6 325.5,545.4 C329.5,544.5 333.3,539.4 331.7,535.1 Z" fill="#5C6032"></path>
                    <path d="M287.1,453.8 C264.3,423.3 236.2,396.7 204,375.6 C194.8,369.6 185.8,384 195,390 C227.4,411.2 255.7,438.5 278.2,470 C283.1,466.4 285.6,460.1 287.1,453.8 Z" fill="#343519"></path>
                    <g transform="translate(0.000000, 187.000000)">
                        <path d="M235.7,150.7 C167,65.6 48.6,-42 10.4,38.1 C-30.1,123.1 143.5,216.5 201.9,245 C213.2,250.5 224.9,255 237,258.5 L277.2,270.2 L277.2,270.2 C277.7,226.7 263,184.5 235.7,150.7 Z" fill="#808850"></path>
                        <path d="M218.5,130.9 C221.8,157.9 225.1,184.9 228.4,211.9 C216.4,198.8 203.9,186.2 191.1,174 C181.9,142.2 174.6,110 169.1,77.4 C168.6,74.2 163.5,74.7 164,78 C169,108 175.6,137.8 183.8,167.1 C171.7,155.8 159.4,144.9 146.8,134.2 C136.2,102.1 127,69.5 119.2,36.6 C118.5,33.4 113.4,34 114.1,37.2 C121.3,67.8 129.7,98 139.3,127.9 C127.8,118.3 116.1,108.9 104.2,99.7 C93.7,67.4 84.1,34.8 75.5,1.9 C74.7,-1.3 69.9,0.6 70.7,3.8 C78.6,34.2 87.4,64.3 97,94.1 C85.3,85.1 73.4,76.2 61.5,67.5 C42.6,53.7 23.5,40.1 4.4,26.6 C1.7,24.7 -1.4,28.8 1.3,30.7 C32.9,53 64.5,75.5 95.1,99.1 C65.6,97 36,97.2 6.5,99.7 C3.2,100 3.8,105.1 7.1,104.8 C38.7,102.1 70.4,102.1 101.9,104.8 C102,104.8 102.2,104.8 102.3,104.8 C115,114.7 127.5,124.8 139.8,135.1 C124.9,132 109.7,132.6 94.6,134.1 C74,136.2 53.5,139.2 33.2,142.8 C30,143.4 30.5,148.5 33.8,147.9 C53.2,144.4 72.8,141.6 92.4,139.5 C109.8,137.6 127.6,136.6 144.6,141.5 C145.5,141.8 146.4,141.6 147,141.2 C159.8,152.1 172.3,163.3 184.5,174.8 C149.7,168.6 113.9,168.9 79.2,175.7 C76,176.3 76.6,181.4 79.8,180.8 C115.9,173.7 153,173.7 189.1,180.8 C189.7,180.9 190.2,180.8 190.6,180.6 C191.7,181.7 192.9,182.8 194,183.9 C205.1,194.7 215.9,205.8 226.3,217.3 C201,216.5 175.6,217.4 150.4,220.4 C147.1,220.8 147.7,225.9 151,225.5 C177.6,222.4 204.3,221.4 231.1,222.6 C235,226.9 238.8,231.3 242.6,235.7 C244.7,238.2 248.8,235.1 246.7,232.6 C242.6,227.8 238.5,223.1 234.3,218.4 C230.7,189 227.1,159.7 223.5,130.3 C223.2,127 218.1,127.6 218.5,130.9 Z" fill="#5C6032"></path>
                        <g transform="translate(37.000000, 24.000000)" fill="#98B44B">
                            <path d="M1.6,11.5 C0.5,12.4 0.2,13.9 1.1,15.1 L1.3,15.4 C2.1,16.5 3.8,16.8 4.9,15.9 C6,15 6.3,13.5 5.4,12.3 L5.2,12 C4.4,11 2.7,10.6 1.6,11.5 Z"></path>
                            <path d="M20.5,1.1 C17.9,3.1 20.9,7.2 23.6,5.2 C26.2,3.2 23.1,-0.9 20.5,1.1 Z"></path>
                            <path d="M14,20.3 C11.4,22.3 14.4,26.4 17.1,24.4 C19.7,22.4 16.6,18.3 14,20.3 Z"></path>
                            <path d="M23.7,30.1 C22.6,31 22.3,32.5 23.2,33.7 L23.4,34 C24.2,35.1 25.9,35.4 27,34.5 C28.1,33.6 28.4,32.1 27.5,30.9 L27.3,30.6 C26.5,29.5 24.8,29.2 23.7,30.1 Z"></path>
                            <path d="M31.7,15.5 L31.4,15.7 C30.3,16.5 30,18.2 30.9,19.3 C31.8,20.4 33.3,20.7 34.5,19.8 L34.8,19.6 C35.9,18.8 36.2,17.1 35.3,16 C34.5,14.9 32.9,14.6 31.7,15.5 Z"></path>
                            <path d="M4.9,1.4 C2.3,3.4 5.3,7.5 8,5.5 C10.7,3.5 7.6,-0.6 4.9,1.4 Z"></path>
                            <path d="M19.8,11.6 C17.2,13.6 20.2,17.7 22.9,15.7 C25.5,13.7 22.4,9.6 19.8,11.6 Z"></path>
                            <path d="M52.5,10.3 C49.9,12.3 52.9,16.4 55.6,14.4 C58.2,12.4 55.1,8.3 52.5,10.3 Z"></path>
                            <path d="M62.5,36.4 C59.9,38.4 62.9,42.5 65.6,40.5 C68.2,38.5 65.1,34.4 62.5,36.4 Z"></path>
                            <path d="M74.8,31 C73.7,31.9 73.4,33.4 74.3,34.6 L74.8,35.2 C75.6,36.3 77.3,36.6 78.4,35.7 C79.5,34.8 79.8,33.3 78.9,32.1 L78.4,31.5 C77.6,30.4 75.8,30.1 74.8,31 Z"></path>
                            <path d="M68.3,14.7 C65.7,16.7 68.7,20.8 71.4,18.8 C74,16.8 70.9,12.7 68.3,14.7 Z"></path>
                            <path d="M59.7,25 C58.6,25.9 58.3,27.4 59.2,28.6 L59.7,29.2 C60.5,30.3 62.2,30.6 63.3,29.7 C64.4,28.8 64.7,27.3 63.8,26.1 L63.3,25.5 C62.5,24.5 60.8,24.2 59.7,25 Z"></path>
                        </g>
                    </g>
                    <path d="M531.1,471.4 C530.2,467.4 525.1,463.5 520.8,465.2 C456.2,489.9 397.7,529.2 351,580.3 C337.8,594.7 325.6,610.1 314.4,626.1 C308.1,635.1 322.6,644 328.8,635.1 C366.3,581.4 416.3,536.8 473.8,505.4 C490.2,496.4 507.3,488.5 524.8,481.8 C529.2,480 532.2,476.3 531.1,471.4 Z" fill="#5C6032"></path>
                    <g transform="translate(453.000000, 324.000000)">
                        <path d="M47.3,102.1 C112.5,41.9 220.3,-30.6 241.5,38.3 C264,111.3 113.6,165.8 63.4,181.8 C53.7,184.9 43.8,187.1 33.7,188.5 L0,193.1 L0,193.1 C4.6,158.2 21.4,126 47.3,102.1 Z" fill="#696D3E"></path>
                        <path d="M63.5,88.3 C57.7,109.6 51.8,130.9 46,152.1 C57.2,143 68.7,134.4 80.4,126.1 C91.5,101.7 101.2,76.7 109.4,51.1 C110.2,48.6 114.2,49.6 113.4,52.2 C105.8,75.7 97,98.8 87,121.4 C98,113.8 109.2,106.5 120.6,99.4 C132.9,74.9 144.1,49.8 154.2,24.3 C155.2,21.8 159.2,22.9 158.2,25.4 C148.8,49.1 138.5,72.4 127.2,95.3 C137.6,89 148.1,82.8 158.7,76.8 C171,52.1 182.5,27.1 193.3,1.7 C194.3,-0.8 197.9,1.3 196.9,3.8 C187,27.2 176.4,50.4 165.1,73.2 C175.6,67.3 186.1,61.6 196.7,56 C213.5,47.1 230.4,38.5 247.4,29.9 C249.8,28.7 251.8,32.3 249.4,33.5 C221.4,47.6 193.4,62 166,77.3 C189.9,79.1 213.7,82.7 237,88.2 C239.6,88.8 238.5,92.8 235.9,92.2 C210.9,86.3 185.4,82.6 159.8,81 C159.7,81 159.6,81 159.5,80.9 C148.2,87.3 136.9,94 125.8,100.8 C138.1,100.1 150.3,102.3 162.2,105.4 C178.5,109.5 194.6,114.3 210.5,119.6 C213,120.4 212,124.5 209.4,123.6 C194.2,118.5 178.9,113.9 163.4,109.9 C149.7,106.4 135.5,103.4 121.3,105.3 C120.6,105.4 119.9,105.2 119.4,104.8 C107.9,112 96.5,119.5 85.3,127.4 C114,126.5 142.6,131 169.7,140.6 C172.2,141.5 171.1,145.5 168.6,144.6 C140.4,134.6 110.6,130.3 80.8,131.7 C80.3,131.7 79.9,131.6 79.6,131.4 C78.6,132.1 77.5,132.9 76.5,133.6 C66.3,141 56.4,148.6 46.7,156.6 C67.1,158.9 87.4,162.7 107.3,168 C109.9,168.7 108.8,172.7 106.2,172 C85.2,166.4 63.9,162.5 42.3,160.2 C38.7,163.2 35.1,166.3 31.5,169.4 C29.5,171.2 26.6,168.2 28.6,166.4 C32.4,163 36.3,159.7 40.3,156.5 C46.7,133.3 53,110.2 59.4,87 C60.2,84.6 64.2,85.7 63.5,88.3 Z" fill="#5C6032"></path>
                        <g transform="translate(154.000000, 21.000000)" fill="#98B44B">
                            <path d="M65.1,11.9 C65.9,12.7 65.9,14 65.1,14.8 L64.9,15 C64.1,15.8 62.7,15.8 62,15 C61.2,14.2 61.2,12.9 62,12.1 L62.2,11.9 C63,11.1 64.4,11.1 65.1,11.9 Z"></path>
                            <path d="M51.2,1.4 C53.1,3.3 50.1,6.2 48.2,4.3 C46.4,2.4 49.3,-0.5 51.2,1.4 Z"></path>
                            <path d="M54.2,17.5 C56.1,19.4 53.1,22.3 51.2,20.4 C49.3,18.5 52.3,15.6 54.2,17.5 Z"></path>
                            <path d="M45.2,24.2 C46,25 46,26.3 45.2,27.1 L45,27.3 C44.2,28.1 42.8,28.1 42.1,27.3 C41.3,26.5 41.3,25.2 42.1,24.4 L42.3,24.2 C43,23.5 44.4,23.4 45.2,24.2 Z"></path>
                            <path d="M40.5,11.5 L40.7,11.7 C41.5,12.5 41.5,13.9 40.7,14.6 C39.9,15.4 38.6,15.4 37.8,14.6 L37.6,14.4 C36.8,13.6 36.8,12.2 37.6,11.5 C38.4,10.8 39.6,10.7 40.5,11.5 Z"></path>
                            <path d="M63.6,3.4 C65.5,5.3 62.5,8.2 60.6,6.3 C58.8,4.4 61.8,1.5 63.6,3.4 Z"></path>
                            <path d="M50.5,9.9 C52.4,11.8 49.4,14.7 47.5,12.8 C45.7,10.9 48.6,8 50.5,9.9 Z"></path>
                            <path d="M24.4,5 C26.3,6.9 23.3,9.8 21.4,7.9 C19.6,6 22.5,3 24.4,5 Z"></path>
                            <path d="M13.3,24.7 C15.2,26.6 12.2,29.5 10.3,27.6 C8.5,25.7 11.4,22.8 13.3,24.7 Z"></path>
                            <path d="M4.1,18.9 C4.9,19.7 4.9,21 4.1,21.8 L3.7,22.2 C2.9,23 1.5,23 0.8,22.2 C-2.27373675e-13,21.4 -2.27373675e-13,20.1 0.8,19.3 L1.2,18.9 C1.9,18.1 3.3,18.1 4.1,18.9 Z"></path>
                            <path d="M11.2,6.6 C13.1,8.5 10.1,11.4 8.2,9.5 C6.4,7.7 9.3,4.7 11.2,6.6 Z"></path>
                            <path d="M16.9,15.9 C17.7,16.7 17.7,18 16.9,18.8 L16.5,19.2 C15.7,20 14.3,20 13.6,19.2 C12.8,18.4 12.8,17.1 13.6,16.3 L14,15.9 C14.7,15.1 16.1,15.1 16.9,15.9 Z"></path>
                        </g>
                    </g>
                </g>
                <g transform="translate(0.000000, 297.000000)">
                    <path d="M347.5,253.5 C344.7,243 327.9,246 330.8,256.6 C370.5,404.9 436.6,544.1 509,678.9 C529.5,717 550.5,754.9 571.7,792.6 C577,802.1 592.4,794.8 587,785.2 C512.9,652.9 439.9,519.2 387,376.8 C372,336.3 358.7,295.2 347.5,253.5 Z" fill="#5C6032"></path>
                    <path d="M387,376.7 C372,336.2 358.7,295.2 347.5,253.5 C344.7,243 327.9,246 330.8,256.6 C346.3,314.4 365.8,370.8 388.1,426.2 C393.8,425.9 399.5,424.6 404.8,422.4 C398.6,407.2 392.7,392 387,376.7 Z" fill="#262612"></path>
                    <g transform="translate(117.000000, 0.000000)">
                        <g>
                            <path d="M17.2,112.4 C24.4,103.9 33.1,96.6 42.7,91 C57.1,82.6 73.4,78.1 89.5,73.7 C131.5,62.2 174,51.3 217.5,48.7 C261,46.1 305.9,52.2 344.1,73.1 C351.2,77 358.1,81.4 363.2,87.6 C373.4,99.7 375.5,116.8 373.6,132.4 C372.1,144.6 368.2,156.5 362.2,167.1 C353,183.3 338.9,196.1 324.6,208.1 C308,222.2 290.8,235.7 273.3,248.6 C250.3,265.5 226.2,281.5 199.1,290.7 C172.1,299.9 141.6,301.6 115.4,290.2 C85.7,277.3 65.4,249.7 46.6,223.3 C32,202.8 22,183 12.3,160 C9.5,153.4 5,148.5 4.8,141 C4.4,130.6 10.7,120.1 17.2,112.4 Z" fill="#704C93"></path>
                            <path d="M109.1,20.2 C113.5,19.1 118.1,19.3 122.6,18.6 C131.4,17.1 138.9,11.9 146.6,7.5 C154.3,3.1 163.3,-0.6 171.9,1.5 C180.1,3.4 186.1,10.1 193.5,14.1 C199.7,17.5 206.8,19 212.6,22.8 C219.1,27.1 223.5,33.8 228.4,39.8 C229.3,40.9 230.3,42.1 231.7,42.4 C232.9,42.7 234.2,42.3 235.4,41.9 C245.4,38.3 254.8,33.1 265.1,30.7 C275.4,28.3 287.4,29.1 295.1,36.3 C297.4,38.5 299.3,41.1 301,43.8 C314.7,64.5 325.6,89.7 319.7,113.8 C316.3,127.6 307.7,139.5 298.1,149.9 C271.9,178.3 235.1,198.6 196.6,197.8 C178.6,197.4 161.1,192.5 144,186.9 C136.9,184.6 129.7,182 123.4,178.1 C110.2,169.8 101.4,155.7 96.5,140.9 C88.5,116.5 89.7,90.8 86.7,65.6 C84.7,48.7 90,25.2 109.1,20.2 Z" fill="#8B5CB7"></path>
                            <path d="M155.6,38.4 C162.1,35.4 169.7,33.6 176.2,36.5 C180.9,38.6 184.3,43 188.9,45.5 C199.1,51.3 211.9,46.7 222.6,41.8 C228.7,39 237.8,33 244.3,34.5 C249.6,35.7 250.9,37.8 254.5,41.9 C261.3,49.7 267.3,63.7 271.5,73.2 C273.3,77.4 274.9,82 274.4,86.6 C274,90.7 272,94.4 269.8,97.8 C254.9,120.6 227.9,132.1 201.9,140.2 C175.2,148.5 151.7,148.4 135.4,123 C125.1,106.9 113.8,89.4 123.2,70.4 C130.1,56.8 141.7,44.8 155.6,38.4 Z" fill="#583B7A"></path>
                            <path d="M221.8,59.4 C214.5,56.9 206.6,57.2 198.9,58 C190.1,59 181.5,60.6 173,63 C164.1,65.5 154.9,69.1 149.4,76.6 C142.3,86.4 144.5,101.7 154.1,109.1 L143.1,107.5 C153.8,118.1 166.1,129.5 181.2,129.8 C190.3,130 199,126 206.7,121.1 C218.2,113.7 228.4,103.8 234.2,91.5 C236.6,86.4 238.3,80.6 237.1,75.1 C235.7,67.7 229.1,61.9 221.8,59.4 Z" fill="#8B5CB7"></path>
                            <path d="M207.4,102.5 C204.7,100.6 201.3,97.6 203,94.7 C203.5,93.9 204.3,93.3 205.1,92.8 C210,90 216.3,89.8 220.4,86 C221.2,85.3 221.8,84.4 222,83.3 C222.2,81.8 221.1,80.5 220.1,79.5 C215.9,75.5 209.5,74 203.9,75.6 C196.9,77.6 190.4,84.2 183.5,81.9 C180.5,80.9 178.1,78.2 175,77.6 C171.1,76.7 167.2,79.2 164.1,81.7 C159.3,85.5 154.7,90.5 154.4,96.6 C154,103.7 159.5,109.6 161.4,116.4 C162.1,118.7 162.2,121.2 162,123.6 C167.9,127.3 174.3,129.9 181.3,130.1 C190.4,130.3 199.1,126.3 206.8,121.4 C210.5,119 214.1,116.3 217.4,113.4 C217.3,113.3 217.3,113.1 217.2,113 C215,108.6 211.3,105.2 207.4,102.5 Z" fill="#583B7A"></path>
                            <path d="M97.9,106.1 C97.9,82 114.8,58.8 137.8,51.4 C128.9,62.2 131.2,79.2 140.1,90 C149,100.8 162.8,106.4 176.4,109.3 C188.4,111.9 201.2,112.7 212.8,108.6 C196.1,118.7 184.8,130.6 170.4,143.7 C163.8,149.7 156.9,156.2 148.1,157.9 C138.6,159.7 129,155.2 120.8,150.1 C113.7,145.6 106.9,140.5 102.1,133.6 C97.4,126.7 97.9,114.4 97.9,106.1 Z" fill="#412955"></path>
                            <path d="M176.4,109.3 C173.7,108.7 171.1,108 168.5,107.2 C165.5,108.6 162.7,110.2 160,112 C152.9,116.8 146.6,122.9 139,126.8 C137.6,127.5 136,128.2 134.4,127.9 C132.6,127.5 131.4,126 130.3,124.6 C119.4,110.1 111.5,93.5 106.9,76 C101.2,85 97.9,95.5 97.9,106.1 C97.9,114.5 97.4,126.7 102.2,133.6 C107,140.5 113.8,145.7 120.9,150.1 C129.1,155.3 138.7,159.7 148.2,157.9 C157,156.2 163.9,149.7 170.5,143.7 C185,130.6 196.3,118.7 212.9,108.6 C201.2,112.6 188.4,111.8 176.4,109.3 Z" fill="#2D1C3D"></path>
                            <path d="M156.9,119.8 C173.8,109.2 193.6,104.2 212.4,97.5 C225.2,92.9 238.2,87.2 246.9,76.7 C255.6,66.3 258.7,50.1 250.8,39.1 C267.3,51.1 283.9,66.5 286.4,86.7 C289.2,109.8 272.7,130.6 255.3,146.1 C245.5,154.9 235,163 222.9,168.1 C200.1,177.6 174.1,174.9 150.7,169 C138.1,165.8 126.6,163.2 131,148.2 C134.4,136.6 147.1,126 156.9,119.8 Z" fill="#412955"></path>
                            <path d="M146.6,144.2 C151.4,132.1 166.4,128.3 179.4,127.6 C197.1,126.6 214.8,128.3 232.5,126.7 C250.1,125 268.2,119.5 280.3,106.5 C296.2,89.5 298.2,64.2 298.7,41 C329.3,60.8 349.5,95.9 351.3,132.3 C353.1,168.7 336.6,205.6 308.2,228.4 C298.9,235.9 288.3,242 276.6,244.5 C258.8,248.3 240,243.4 224,234.6 C204,223.6 193.6,209.6 179.7,193.1 C168,179.4 137.2,167.9 146.6,144.2 Z" fill="#412955"></path>
                            <path d="M295.5,194.2 C287.5,182.1 278.7,170 266.3,162.5 C251.3,153.3 233,152 215.6,149.6 C205.6,148.2 195.7,146.4 185.8,144.2 C176.4,142.1 166.1,138.7 160,131.7 C154,134.2 148.9,138.2 146.5,144.3 C137.2,168 167.9,179.5 179.6,193.2 C193.5,209.7 203.9,223.7 223.9,234.7 C239.9,243.5 258.7,248.4 276.5,244.6 C288.2,242.1 298.8,236 308.1,228.5 C308.6,228.1 309.1,227.6 309.6,227.2 C309.3,224.4 308.9,221.7 308.1,219 C305.7,210 300.7,201.9 295.5,194.2 Z" fill="#2D1C3D"></path>
                            <path d="M56.1,211.9 C41,181.4 36.7,145.7 44,112.5 C51.4,79.3 70.4,48.7 97,27.5 C92.6,47.6 94.6,71 100.4,90.7 C106.3,110.4 118.8,128.4 136.5,138.9 C149.6,146.6 164.7,149.9 179.5,153 C196.1,156.5 212.6,160.1 229.2,163.6 C244.2,166.8 259.4,170.1 272.8,177.4 C286.2,184.7 297.9,196.7 301.2,211.7 C303.3,221.5 301.6,231.9 298.3,241.4 C285,279.3 245.7,304.4 205.6,308 C165.6,311.7 125.6,296.7 92.3,274.2 C70.2,259.3 53.6,238.6 56.1,211.9 Z" fill="#412955"></path>
                            <path d="M159.2,249.2 C137.2,228.5 110.8,213.1 86.4,195.1 C75.6,187.2 65.2,178.6 56.7,168.3 C50.1,160.3 44.9,151.3 40.5,142 C40,166.1 45.3,190.4 56,212.1 C53.5,238.7 70.1,259.4 92.2,274.4 C123.1,295.3 159.8,309.7 196.9,308.7 C191.1,285.9 176.5,265.4 159.2,249.2 Z" fill="#2D1C3D"></path>
                            <path d="M159,394.6 C119.3,372 79.1,348.4 49.4,313.8 C6.5,263.9 -10.1,192.6 6.3,128.9 C10.3,156 29.9,175.2 52.1,191.3 C73.6,206.9 100.2,213.5 123.5,226.4 C157.9,245.5 183.5,277.5 202.5,312 C208.2,322.4 213.5,333.5 214.4,345.3 C216.2,372.1 182.4,407.9 159,394.6 Z" fill="#412955"></path>
                            <path d="M214.3,345.3 C213.5,333.4 208.2,322.4 202.4,312 C184,278.6 159.3,247.5 126.4,228.2 C111.4,227.9 100,228.6 94,232.8 C84.4,239.5 80.5,255.6 79.5,273.9 C77.5,312.7 93.9,348.4 121.1,372.3 C133.6,380.1 146.3,387.4 159,394.6 C182.4,407.9 216.2,372.1 214.3,345.3 Z" fill="#2D1C3D"></path>
                            <path d="M100.7,291.4 C95.6,273 92.8,251.5 104.5,236.5 C112.6,226.1 126.1,221.4 139.2,220.1 C152.3,218.8 165.5,220.6 178.6,220.6 C208.3,220.7 237.3,212.4 265.6,203.4 C279.5,199 293.4,194.4 305.8,186.8 C339.7,166 357,127 372.3,90.2 C377.9,112.6 381.1,135.6 381.9,158.6 C382.4,172.1 381.9,186 377.4,198.8 C370.6,218.2 354.9,233.3 338.1,245.1 C301.3,271 254.3,284.6 210.3,275 C192.2,271 175,263.3 156.8,259.5 C138.6,255.7 118.2,256.4 103.5,267.8 C96,273.8 99.4,281.9 100.7,291.4 Z" fill="#8B5CB7"></path>
                            <path d="M217.2,406.6 C148,406.2 92.9,347 96.5,277.8 C97.5,259.5 101.4,243.5 111,236.7 C139.4,216.7 288.3,276.2 366,143.1 C372.5,131.9 368,116.5 377.4,107.6 C377.4,107.6 431.7,258.4 362.3,340.5 C324.6,385.1 269.4,406.9 217.2,406.6 Z" fill="#412955"></path>
                        </g>
                        <path d="M321.2,338.9 C317,340.9 320.2,347.5 324.4,345.5 C328.6,343.4 325.5,336.9 321.2,338.9 Z" fill="#8B5CB7"></path>
                        <path d="M351.8,303.5 C349.9,302.9 347.8,303.8 347.2,305.7 C347,306.2 346.9,306.7 346.7,307.2 C346.1,309 347.1,311.3 348.9,311.8 C350.8,312.4 352.9,311.5 353.5,309.6 C353.7,309.1 353.8,308.6 354,308.1 C354.7,306.3 353.7,304 351.8,303.5 Z" fill="#8B5CB7"></path>
                        <path d="M324.3,316.8 C323.8,316.6 323.3,316.5 322.8,316.3 C321,315.7 318.7,316.7 318.2,318.5 C317.6,320.4 318.5,322.5 320.4,323.1 C320.9,323.3 321.4,323.4 321.9,323.6 C323.7,324.2 326,323.2 326.5,321.4 C327.1,319.6 326.2,317.5 324.3,316.8 Z" fill="#8B5CB7"></path>
                        <path d="M355.7,277.4 C354,278.3 353.1,280.4 354,282.3 L354.5,283.3 C355.3,285 357.6,285.9 359.4,285 C361.1,284.1 362,282 361.1,280.1 L360.6,279.1 C359.7,277.4 357.4,276.4 355.7,277.4 Z" fill="#8B5CB7"></path>
                        <path d="M326.1,285.6 C324.2,285 322.1,285.9 321.5,287.8 C321.3,288.3 321.2,288.8 321,289.3 C320.4,291.1 321.4,293.4 323.2,293.9 C325.1,294.5 327.2,293.6 327.8,291.7 L328.3,290.2 C329,288.4 328,286.2 326.1,285.6 Z" fill="#8B5CB7"></path>
                        <path d="M363.8,251.6 L362.8,252.1 C361.1,252.9 360.2,255.2 361.1,257 C362,258.7 364.1,259.6 366,258.7 L367,258.2 C368.7,257.4 369.6,255.1 368.7,253.3 C367.7,251.6 365.6,250.7 363.8,251.6 Z" fill="#8B5CB7"></path>
                        <path d="M323.9,252.2 C322.1,251.1 320.1,251.6 318.8,253.2 C318.3,253.8 317.8,254.5 317.3,255.1 C316.1,256.6 316.7,259.2 318.3,260.2 C320.1,261.3 322.1,260.8 323.4,259.2 C323.9,258.6 324.4,257.9 324.9,257.3 C326,255.8 325.5,253.2 323.9,252.2 Z" fill="#8B5CB7"></path>
                        <path d="M344.4,241.6 C340.2,243.6 343.4,250.2 347.6,248.2 C351.8,246.1 348.6,239.6 344.4,241.6 Z" fill="#8B5CB7"></path>
                        <path d="M377,206.4 C372.8,208.4 376,215 380.2,213 C384.4,210.9 381.3,204.3 377,206.4 Z" fill="#8B5CB7"></path>
                        <path d="M344.7,257.2 C340.5,259.2 343.7,265.8 347.9,263.8 C352.1,261.8 348.9,255.2 344.7,257.2 Z" fill="#8B5CB7"></path>
                        <path d="M326,226.3 C321.8,228.3 325,234.9 329.2,232.9 C333.4,230.8 330.3,224.2 326,226.3 Z" fill="#8B5CB7"></path>
                        <path d="M341.4,205.5 C337.2,207.5 340.4,214.1 344.6,212.1 C348.8,210 345.6,203.4 341.4,205.5 Z" fill="#8B5CB7"></path>
                        <path d="M357.8,226.7 C353.6,228.7 356.8,235.3 361,233.3 C365.2,231.2 362,224.6 357.8,226.7 Z" fill="#8B5CB7"></path>
                        <path d="M376.8,228.4 C372.6,230.4 375.8,237 380,235 C384.2,232.9 381,226.3 376.8,228.4 Z" fill="#8B5CB7"></path>
                        <path d="M357.7,194 C353.5,196 356.7,202.6 360.9,200.6 C365.1,198.5 361.9,191.9 357.7,194 Z" fill="#8B5CB7"></path>
                        <path d="M372.1,168.8 C367.9,170.8 371.1,177.4 375.3,175.4 C379.5,173.3 376.4,166.7 372.1,168.8 Z" fill="#8B5CB7"></path>
                        <path d="M372.8,152.7 C368.6,154.7 371.8,161.3 376,159.3 C380.2,157.2 377,150.6 372.8,152.7 Z" fill="#8B5CB7"></path>
                        <path d="M355.9,175.4 C351.7,177.4 354.9,184 359.1,182 C363.3,179.9 360.2,173.3 355.9,175.4 Z" fill="#8B5CB7"></path>
                        <path d="M381.2,185 C377,187 380.2,193.6 384.4,191.6 C388.6,189.5 385.4,182.9 381.2,185 Z" fill="#8B5CB7"></path>
                    </g>
                    <path d="M442.5,509.8 C390.5,463.4 324.9,434.2 255.5,427.3 C244.6,426.2 243.3,443.2 254.2,444.3 C318.8,450.7 381.2,477.8 429.7,521.1 C433.2,524.2 437.9,525.1 441.7,521.9 C444.9,519.1 445.9,512.9 442.5,509.8 Z" fill="#5C6032"></path>
                    <path d="M365.3,458.3 C330.9,441.7 293.8,431.1 255.5,427.3 C244.6,426.2 243.3,443.2 254.2,444.3 C292.8,448.1 330.5,459.3 365,476.9 C367.7,471.2 366.9,464.5 365.3,458.3 Z" fill="#343519"></path>
                    <g transform="translate(0.000000, 320.000000)">
                        <path d="M266.2,58.9 C166,15.1 11.2,-25.6 14.3,63.1 C17.6,157.2 214.7,159.8 279.7,158.2 C292.2,157.9 304.7,156.5 317,154 L358.1,145.8 L358.1,145.8 C338.5,107 306,76.3 266.2,58.9 Z" fill="#808850"></path>
                        <path d="M241.7,49.4 C257.1,71.8 272.5,94.2 287.9,116.6 C271.2,110.6 254.3,105.1 237.3,100.2 C214.5,76.3 193.1,51.1 173.2,24.7 C171.2,22.1 167,24.9 169,27.6 C187.3,51.9 206.9,75.3 227.7,97.5 C211.8,93.1 195.8,89.1 179.7,85.4 C155.5,61.8 132.3,37.2 110.2,11.6 C108.1,9.1 103.8,12 106,14.5 C126.5,38.3 148,61.3 170.3,83.3 C155.6,80.1 140.9,77.2 126.2,74.5 C102,50.7 78.4,26.2 55.6,1 C53.4,-1.4 50.1,2.5 52.2,4.9 C73.3,28.2 94.9,50.8 117.2,72.9 C102.6,70.3 88,67.9 73.4,65.7 C50.2,62.1 27,58.9 3.8,55.8 C0.5,55.4 -0.4,60.4 2.9,60.8 C41.2,65.9 79.6,71.4 117.7,78.1 C90.6,89.8 64.4,103.7 39.4,119.5 C36.6,121.3 39.5,125.5 42.3,123.7 C69,106.7 97.2,92.1 126.4,79.9 C126.5,79.8 126.7,79.8 126.8,79.7 C142.6,82.6 158.4,85.8 174.1,89.2 C159.5,93.4 146.2,100.9 133.5,109.2 C116.2,120.5 99.4,132.7 83,145.3 C80.4,147.3 83.3,151.6 85.9,149.5 C101.5,137.5 117.6,125.9 134,115 C148.5,105.3 163.9,96.2 181.2,92.6 C182.1,92.4 182.8,91.9 183.2,91.2 C199.6,95 215.8,99.1 232,103.7 C198.3,114.3 166.7,131.1 139.1,153.1 C136.5,155.1 139.4,159.4 142,157.3 C170.8,134.3 203.7,117.2 239,106.8 C239.6,106.6 240,106.3 240.2,105.9 C241.7,106.3 243.2,106.8 244.7,107.2 C259.5,111.7 274.2,116.5 288.7,121.9 C265.8,132.9 243.8,145.4 222.8,159.7 C220.1,161.6 222.9,165.8 225.7,163.9 C247.9,148.9 271.1,135.7 295.4,124.4 C300.8,126.5 306.3,128.6 311.6,130.8 C314.6,132 316.9,127.4 313.8,126.2 C308,123.8 302.1,121.6 296.2,119.3 C279.4,94.9 262.7,70.5 245.9,46.1 C244.1,43.8 239.9,46.7 241.7,49.4 Z" fill="#5C6032"></path>
                        <g transform="translate(36.000000, 18.000000)" fill="#98B44B">
                            <path d="M2.2,29.9 C1.7,31.2 2.1,32.7 3.4,33.3 L3.7,33.5 C4.9,34.1 6.6,33.6 7.1,32.3 C7.6,31 7.2,29.5 5.9,28.9 L5.6,28.7 C4.4,28.1 2.7,28.6 2.2,29.9 Z"></path>
                            <path d="M14.1,12 C12.7,15 17.3,17.2 18.7,14.2 C20.1,11.2 15.5,9 14.1,12 Z"></path>
                            <path d="M17.2,32 C15.8,35 20.4,37.2 21.8,34.2 C23.2,31.2 18.6,29 17.2,32 Z"></path>
                            <path d="M30.3,36.2 C29.8,37.5 30.2,39 31.5,39.6 L31.8,39.8 C33,40.4 34.7,39.9 35.2,38.6 C35.7,37.3 35.3,35.8 34,35.2 L33.7,35 C32.6,34.4 30.9,34.9 30.3,36.2 Z"></path>
                            <path d="M30.7,19.5 L30.5,19.8 C29.9,21 30.4,22.7 31.7,23.2 C33,23.7 34.5,23.3 35.1,22 L35.3,21.7 C35.9,20.5 35.4,18.8 34.1,18.3 C32.9,17.7 31.3,18.2 30.7,19.5 Z"></path>
                            <path d="M0.4,19.4 C-1,22.4 3.6,24.6 5,21.6 C6.5,18.6 1.8,16.4 0.4,19.4 Z"></path>
                            <path d="M18.3,21.6 C16.9,24.6 21.5,26.8 22.9,23.8 C24.4,20.8 19.8,18.6 18.3,21.6 Z"></path>
                            <path d="M46.7,5.3 C45.3,8.3 49.9,10.5 51.3,7.5 C52.8,4.5 48.1,2.3 46.7,5.3 Z"></path>
                            <path d="M67.6,23.8 C66.2,26.8 70.8,29 72.2,26 C73.7,23 69.1,20.8 67.6,23.8 Z"></path>
                            <path d="M76,13.3 C75.5,14.6 75.9,16.1 77.2,16.7 L77.9,17 C79.1,17.6 80.8,17.1 81.3,15.8 C81.8,14.5 81.4,13 80.1,12.4 L79.4,12.1 C78.2,11.6 76.6,12.1 76,13.3 Z"></path>
                            <path d="M62.8,1.9 C61.4,4.9 66,7.1 67.4,4.1 C68.8,1.2 64.2,-1.1 62.8,1.9 Z"></path>
                            <path d="M59.9,15 C59.4,16.3 59.8,17.8 61.1,18.4 L61.8,18.7 C63,19.3 64.7,18.8 65.2,17.5 C65.7,16.2 65.3,14.7 64,14.1 L63.3,13.8 C62.1,13.2 60.5,13.7 59.9,15 Z"></path>
                        </g>
                    </g>
                    <path d="M589.9,361.1 C587.2,357.9 580.9,356.9 577.9,360.3 C532,412 498.3,473.9 480.5,540.8 C475.5,559.7 471.7,578.9 469.2,598.3 C467.8,609.2 484.8,610.4 486.2,599.6 C494.7,534.6 518.4,472 554.9,417.6 C565.3,402 576.8,387.1 589.2,373.1 C592.2,369.7 593.2,364.9 589.9,361.1 Z" fill="#5C6032"></path>
                    <g transform="translate(532.000000, 176.000000)">
                        <path d="M9.7,159.2 C39.7,75.7 101.9,-38.3 152.5,13 C206.2,67.4 97.9,185.2 60.8,222.5 C53.6,229.7 45.8,236.3 37.5,242.2 L9.8,261.8 L9.8,261.8 C-2.3,228.7 -2.2,192.4 9.7,159.2 Z" fill="#696D3E"></path>
                        <path d="M17.6,139.5 C22.2,161.1 26.9,182.6 31.5,204.2 C37.2,191 43.4,178 50,165.2 C48.6,138.4 45.6,111.8 41.1,85.3 C40.7,82.7 44.7,81.8 45.2,84.4 C49.3,108.8 52.2,133.3 53.7,158 C59.9,146.2 66.5,134.5 73.3,122.9 C72.9,95.5 71.3,68.1 68.5,40.8 C68.2,38.2 72.3,37.2 72.6,39.9 C75.2,65.3 76.8,90.7 77.4,116.2 C83.7,105.8 90.2,95.5 96.8,85.2 C96.3,57.6 94.9,30.1 92.8,2.6 C92.6,-0.1 96.7,0.1 97,2.8 C99,28.2 100.3,53.6 100.9,79 C107.5,69 114.2,59 121,49.2 C131.8,33.6 142.8,18.1 153.9,2.6 C155.5,0.4 158.9,2.7 157.4,4.9 C139.1,30.4 120.9,56 103.7,82.3 C125.7,72.8 148.5,65.1 171.7,59.2 C174.3,58.5 175.2,62.6 172.6,63.3 C147.7,69.6 123.4,78.1 99.9,88.5 C99.8,88.5 99.7,88.6 99.6,88.6 C92.5,99.5 85.6,110.6 78.9,121.8 C89.5,115.5 101.3,111.9 113.3,109 C129.6,105.1 146.1,102 162.7,99.3 C165.3,98.9 166.2,102.9 163.6,103.4 C147.8,105.9 132.1,108.9 116.5,112.6 C102.7,115.8 88.7,119.7 77,128 C76.4,128.4 75.7,128.5 75.1,128.4 C68.2,140.1 61.6,152.1 55.3,164.1 C80.3,150.1 107.8,140.8 136.2,136.8 C138.8,136.4 139.7,140.5 137.1,140.9 C107.5,145.1 79.1,155 53.3,170 C52.9,170.2 52.5,170.3 52.1,170.2 C51.5,171.3 50.9,172.5 50.4,173.6 C44.8,184.8 39.5,196.2 34.5,207.8 C53.7,200.4 73.4,194.4 93.5,189.9 C96.1,189.3 97,193.4 94.4,194 C73.2,198.7 52.4,205.1 32.3,213.1 C30.5,217.5 28.7,221.8 27,226.2 C26,228.7 22.1,227.4 23,224.9 C24.9,220.1 26.8,215.4 28.8,210.7 C23.7,187.2 18.7,163.8 13.6,140.3 C13,137.8 17.1,136.9 17.6,139.5 Z" fill="#5C6032"></path>
                        <g transform="translate(76.000000, 11.000000)" fill="#98B44B">
                            <path d="M54.1,7.5 C55.2,7.9 55.8,9 55.4,10.1 L55.3,10.4 C55,11.4 53.7,12.1 52.7,11.7 C51.6,11.3 51,10.2 51.4,9.1 L51.5,8.8 C51.8,7.8 53.1,7.1 54.1,7.5 Z"></path>
                            <path d="M36.9,4.5 C39.4,5.3 38.2,9.3 35.6,8.5 C33.1,7.7 34.4,3.7 36.9,4.5 Z"></path>
                            <path d="M47,17.5 C49.5,18.3 48.3,22.3 45.7,21.5 C43.2,20.7 44.5,16.7 47,17.5 Z"></path>
                            <path d="M42.1,27.6 C43.2,28 43.8,29.1 43.4,30.2 L43.3,30.5 C43,31.5 41.7,32.2 40.7,31.8 C39.6,31.4 39,30.3 39.4,29.2 L39.5,28.9 C39.8,27.9 41.1,27.2 42.1,27.6 Z"></path>
                            <path d="M32.1,18.6 L32.4,18.7 C33.4,19 34.1,20.3 33.7,21.3 C33.3,22.4 32.2,23 31.1,22.6 L30.8,22.5 C29.8,22.2 29.1,20.9 29.5,19.9 C29.9,18.8 31,18.2 32.1,18.6 Z"></path>
                            <path d="M48.9,0.6 C51.4,1.4 50.2,5.4 47.6,4.6 C45.1,3.8 46.3,-0.2 48.9,0.6 Z"></path>
                            <path d="M40.2,12.4 C42.7,13.2 41.5,17.2 38.9,16.4 C36.4,15.6 37.7,11.6 40.2,12.4 Z"></path>
                            <path d="M14.8,20.1 C17.3,20.9 16.1,24.9 13.5,24.1 C11,23.2 12.3,19.3 14.8,20.1 Z"></path>
                            <path d="M14.1,42.8 C16.6,43.6 15.4,47.6 12.8,46.8 C10.2,45.9 11.5,41.9 14.1,42.8 Z"></path>
                            <path d="M3.2,41.9 C4.3,42.3 4.9,43.4 4.5,44.5 L4.3,45.1 C4,46.1 2.7,46.8 1.7,46.4 C0.6,46 0,44.9 0.4,43.8 L0.6,43.2 C0.9,42.2 2.2,41.5 3.2,41.9 Z"></path>
                            <path d="M3.9,27.7 C6.4,28.5 5.2,32.5 2.6,31.7 C0,30.8 1.3,26.9 3.9,27.7 Z"></path>
                            <path d="M13.2,33.3 C14.3,33.7 14.9,34.8 14.5,35.9 L14.3,36.5 C14,37.5 12.7,38.2 11.7,37.8 C10.6,37.4 10,36.3 10.4,35.2 L10.6,34.6 C10.9,33.6 12.1,32.9 13.2,33.3 Z"></path>
                        </g>
                    </g>
                </g>
                <g transform="translate(330.000000, 346.000000)">
                    <path d="M342.7,255.2 C349,246.3 336.1,235.3 329.7,244.2 C240.4,369 174.8,508.5 116.8,650.1 C100.4,690.2 84.5,730.4 68.8,770.8 C64.8,781 80.3,788.1 84.3,777.9 C139.4,636.7 196.3,495.3 272.7,364 C294.3,326.7 317.6,290.3 342.7,255.2 Z" fill="#5C6032"></path>
                    <path d="M272.6,364 C294.3,326.7 317.6,290.3 342.7,255.2 C349,246.3 336.1,235.3 329.7,244.2 C294.9,292.9 263.7,343.8 235.1,396.1 C239,400.3 243.5,403.9 248.6,406.6 C256.4,392.4 264.4,378.1 272.6,364 Z" fill="#262612"></path>
                    <g transform="translate(177.000000, 0.000000)">
                        <g>
                            <path d="M139.1,0.8 C150.3,0.9 161.4,3 171.9,6.9 C187.5,12.7 201.4,22.4 215,32 C250.5,57.2 286,83.1 315.6,115 C345.2,146.9 369,185.5 377.1,228.3 C378.6,236.2 379.5,244.4 378.1,252.3 C375.2,267.8 363.4,280.4 350.1,288.8 C339.7,295.3 328.1,300 316,302 C297.6,305.1 278.8,302.4 260.4,299.1 C238.9,295.2 217.6,290.6 196.5,285.2 C168.8,278.2 141.1,269.7 116.9,254.6 C92.7,239.5 71.9,217.1 64.1,189.7 C55.2,158.5 63.7,125.4 72.1,94.1 C78.7,69.8 87.6,49.5 99.2,27.4 C102.5,21 103.5,14.5 109.1,9.6 C117,2.5 129.1,0.7 139.1,0.8 Z" fill="#704C93"></path>
                            <path d="M268.8,13.3 C272.5,16 275.2,19.7 278.6,22.7 C285.3,28.5 294.1,31 302.4,34.2 C310.7,37.4 319.2,41.9 323.1,49.9 C326.8,57.4 325.5,66.4 327.1,74.6 C328.4,81.5 331.8,87.9 332.5,94.9 C333.3,102.6 330.9,110.3 329.4,117.9 C329.1,119.3 328.9,120.8 329.5,122.1 C330.1,123.3 331.2,124 332.3,124.7 C341.4,130.1 351.4,134.1 359.8,140.5 C368.2,146.9 375.2,156.7 374.5,167.3 C374.3,170.5 373.4,173.6 372.5,176.7 C365.2,200.5 352.7,224.9 330.3,235.6 C317.5,241.7 302.8,242.6 288.7,241.8 C250.2,239.6 211,224.1 187.2,193.8 C176.1,179.7 168.7,163 162.2,146.2 C159.5,139.2 156.9,132.1 155.9,124.7 C153.9,109.2 159.2,93.5 167.6,80.3 C181.3,58.6 202,43.2 219.5,24.9 C231.2,12.5 252.8,1.7 268.8,13.3 Z" fill="#8B5CB7"></path>
                            <path d="M284.2,60.8 C290.6,63.9 296.9,68.7 298.7,75.5 C300.1,80.5 298.9,85.9 299.8,91 C301.8,102.6 313.5,109.5 324.1,114.7 C330.1,117.6 340.6,120.8 343.6,126.8 C346,131.7 345.3,134 344.4,139.3 C342.7,149.5 335.7,163.1 331,172.3 C328.9,176.4 326.4,180.5 322.5,183.1 C319.1,185.4 315,186.2 310.9,186.7 C283.8,189.7 257.8,176.1 235.1,161.2 C211.7,145.8 196.8,127.7 206.1,98.9 C212,80.7 218.3,60.8 239,56.1 C253.8,52.7 270.5,54.1 284.2,60.8 Z" fill="#583B7A"></path>
                            <path d="M310,125.2 C307.3,118 302.1,112 296.5,106.7 C290.2,100.5 283.4,94.9 276.1,89.9 C268.5,84.6 259.8,79.8 250.6,80.3 C238.5,81.1 228.1,92.5 228.5,104.6 L222.7,95.1 C221.3,110.1 220.3,126.8 229.6,138.7 C235.2,145.9 243.9,150.1 252.5,152.9 C265.5,157.1 279.6,158.7 292.9,155.3 C298.4,153.9 303.9,151.5 307.5,147.1 C312.4,141.2 312.7,132.4 310,125.2 Z" fill="#8B5CB7"></path>
                            <path d="M267.6,141.4 C267.3,138.1 267.6,133.6 270.8,133 C271.7,132.8 272.7,133.1 273.6,133.4 C278.8,135.4 283,140.2 288.6,140.9 C289.6,141 290.8,141 291.6,140.4 C292.8,139.6 293.2,138 293.3,136.5 C293.7,130.7 290.8,124.8 286,121.5 C280,117.4 270.8,116.5 268.2,109.7 C267.1,106.7 267.6,103.2 266.1,100.3 C264.3,96.7 260,95.3 256,94.5 C250,93.3 243.2,92.8 238.3,96.4 C232.6,100.6 231.5,108.6 227.4,114.4 C226,116.4 224.2,118.1 222.2,119.4 C223.1,126.4 225.2,132.9 229.5,138.4 C235.1,145.6 243.8,149.8 252.4,152.6 C256.6,154 261,155 265.3,155.7 C265.4,155.6 265.5,155.4 265.5,155.3 C267.8,151.2 268,146.2 267.6,141.4 Z" fill="#583B7A"></path>
                            <path d="M195.3,59.1 C213.9,43.8 242.6,42.1 262.9,55.2 C248.9,55.2 237.2,67.8 234.5,81.5 C231.8,95.2 236.3,109.4 242.7,121.8 C248.4,132.7 255.9,143.1 266.4,149.5 C248,143.1 231.6,141.9 212.3,139 C203.5,137.7 194,136.5 187.2,130.8 C179.8,124.6 177.1,114.4 175.9,104.7 C174.8,96.4 174.5,87.9 176.8,79.8 C179,71.9 188.8,64.4 195.3,59.1 Z" fill="#412955"></path>
                            <path d="M242.7,121.8 C241.4,119.4 240.3,116.9 239.2,114.4 C236.2,113 233.2,111.8 230,110.9 C221.8,108.4 213.1,107.5 205.3,104.1 C203.8,103.5 202.3,102.6 201.5,101.2 C200.7,99.6 201,97.7 201.5,95.9 C205.7,78.3 213.5,61.6 224.2,47 C213.7,48.4 203.5,52.4 195.3,59.2 C188.8,64.5 179.1,71.9 176.8,80 C174.5,88 174.8,96.6 175.9,104.9 C177.1,114.5 179.8,124.7 187.2,131 C194,136.7 203.5,137.9 212.3,139.2 C231.6,142.1 248,143.2 266.4,149.7 C255.9,143.1 248.4,132.7 242.7,121.8 Z" fill="#2D1C3D"></path>
                            <path d="M222.2,113.4 C241.2,119.7 257.6,131.9 274.7,142.1 C286.3,149.1 299.1,155.4 312.6,155.5 C326.2,155.6 340.7,147.7 344.1,134.6 C345.3,155 344,177.6 329.9,192.3 C313.9,209.2 287.3,209.6 264.3,206.1 C251.3,204.1 238.3,201.2 226.7,195 C204.9,183.4 190.4,161.6 180.2,139.8 C174.7,128 169.3,117.5 183.7,111.4 C194.9,106.8 211.2,109.8 222.2,113.4 Z" fill="#412955"></path>
                            <path d="M196.8,121 C209.1,117 221.7,126.2 230.4,135.8 C242.4,148.8 252.3,163.6 264.8,176.2 C277.3,188.7 293.1,199.2 310.8,200.3 C334,201.8 354.9,187.3 373.1,172.9 C377.2,209.1 363,247 336,271.5 C309,296 270.1,306.7 234.4,299.3 C222.7,296.9 211.2,292.5 201.9,285.1 C187.6,273.8 179.5,256.1 176.1,238.2 C171.9,215.8 176.1,198.8 180,177.6 C183.2,159.9 172.5,128.8 196.8,121 Z" fill="#412955"></path>
                            <path d="M252.8,267.7 C257,253.8 260.8,239.3 258.8,225 C256.4,207.6 245.8,192.6 236.6,177.6 C231.3,169 226.4,160.2 221.9,151.2 C217.6,142.6 213.6,132.5 215.2,123.4 C209.4,120.4 203.1,119 196.9,121 C172.7,128.8 183.3,159.9 180.1,177.6 C176.2,198.8 172,215.7 176.2,238.2 C179.6,256.1 187.7,273.8 202,285.1 C211.3,292.5 222.8,296.9 234.5,299.3 C235.1,299.4 235.8,299.5 236.5,299.6 C238.5,297.7 240.3,295.5 241.9,293.3 C247.1,285.7 250.1,276.6 252.8,267.7 Z" fill="#2D1C3D"></path>
                            <path d="M87,94.1 C101,63.1 125.8,37 156.1,21.6 C186.4,6.2 222.1,1.5 255.4,8.5 C237.1,17.9 220.2,34.3 208.7,51.3 C197.2,68.3 191.3,89.5 194.5,109.8 C196.9,124.8 203.9,138.5 210.9,152 C218.7,167 226.5,182.1 234.2,197.1 C241.2,210.7 248.3,224.5 251.2,239.5 C254.1,254.5 252.2,271.2 242.7,283.2 C236.4,291.1 227.4,296.4 217.9,299.8 C180.2,313.6 135.8,299.2 107.6,270.6 C79.3,242 65.5,201.6 61.7,161.6 C59.4,135 64.8,109.1 87,94.1 Z" fill="#412955"></path>
                            <path d="M123.7,197.4 C125.7,167.2 120.8,137.1 119.3,106.8 C118.6,93.4 118.6,79.9 121.2,66.8 C123.2,56.6 126.8,46.9 131.3,37.6 C112.4,52.6 96.9,72.1 87,94.1 C64.8,109.1 59.4,135 61.9,161.7 C65.4,198.9 77.6,236.3 101.9,264.3 C115.7,245.4 122.2,221.1 123.7,197.4 Z" fill="#2D1C3D"></path>
                            <path d="M11.3,289.7 C3.5,244.7 -3.8,198.7 4.1,153.7 C15.4,88.9 59.9,30.8 119.5,3 C101.1,23.3 98.7,50.7 100.4,78 C102,104.5 113.8,129.3 118.6,155.4 C125.7,194.1 117.3,234.2 102.7,270.8 C98.3,281.8 93.1,293 84.5,301.1 C65,319.5 15.8,316.2 11.3,289.7 Z" fill="#412955"></path>
                            <path d="M84.5,301 C93.1,292.8 98.3,281.7 102.7,270.7 C116.8,235.2 125.2,196.4 119.2,158.8 C109.9,147 102.1,138.6 95.1,136.6 C83.8,133.5 68.9,140.6 54.2,151.5 C22.9,174.6 5.8,210 4.6,246.1 C6.5,260.7 8.9,275.2 11.4,289.6 C15.8,316.2 65,319.5 84.5,301 Z" fill="#2D1C3D"></path>
                            <path d="M53.9,179 C64.9,163.4 79.7,147.5 98.8,147.1 C111.9,146.8 124.2,154.2 133.5,163.5 C142.8,172.8 149.8,184.1 158.1,194.3 C176.8,217.3 201.7,234.4 226.6,250.6 C238.8,258.5 251.3,266.4 265,271.1 C302.6,284.1 343.8,272.6 381.8,261.2 C368,279.7 352.3,296.8 335,312.1 C324.8,321.1 313.9,329.5 301.1,334.2 C281.7,341.2 260.2,338.8 240.3,333.3 C196.9,321.3 156.6,293.7 136.1,253.6 C127.6,237.1 122.7,218.9 114.1,202.5 C105.5,186.1 91.9,170.7 73.8,166.6 C64.6,164.2 60.4,172 53.9,179 Z" fill="#8B5CB7"></path>
                            <path d="M39,342.2 C-4.6,288.5 6.1,208.3 61.8,167.2 C76.6,156.3 91.4,149.1 102.7,152.3 C136.2,161.6 184.8,314.3 336.9,289.8 C349.7,287.7 358.7,274.5 371.6,276 C371.6,276 289.6,413.7 182.1,412.3 C123.8,411.5 71.9,382.7 39,342.2 Z" fill="#412955"></path>
                        </g>
                        <path d="M157.3,379.6 C153,377.6 150,384.3 154.3,386.2 C158.5,388.1 161.6,381.5 157.3,379.6 Z" fill="#8B5CB7"></path>
                        <path d="M204.1,380.6 C203.3,378.8 201.3,377.7 199.4,378.4 C198.9,378.6 198.4,378.8 198,378.9 C196.2,379.6 195.1,381.8 195.8,383.6 C196.6,385.4 198.6,386.5 200.5,385.8 C201,385.6 201.5,385.4 201.9,385.3 C203.7,384.7 204.9,382.5 204.1,380.6 Z" fill="#8B5CB7"></path>
                        <path d="M176.4,367.9 C176.2,367.4 176,366.9 175.9,366.5 C175.2,364.7 173,363.6 171.2,364.3 C169.4,365.1 168.3,367.1 169,369 C169.2,369.5 169.4,370 169.5,370.4 C170.2,372.2 172.4,373.3 174.2,372.6 C176,371.8 177.1,369.8 176.4,367.9 Z" fill="#8B5CB7"></path>
                        <path d="M226.7,367.1 C224.9,366.4 222.7,367 221.9,368.9 L221.4,369.9 C220.6,371.6 221.4,374 223.2,374.7 C225,375.4 227.2,374.8 228,372.9 L228.5,371.9 C229.3,370.2 228.6,367.8 226.7,367.1 Z" fill="#8B5CB7"></path>
                        <path d="M201.6,349.5 C200.8,347.7 198.8,346.6 196.9,347.3 C196.4,347.5 195.9,347.7 195.5,347.8 C193.7,348.5 192.6,350.7 193.3,352.5 C194.1,354.3 196.1,355.4 198,354.7 L199.4,354.2 C201.3,353.5 202.4,351.3 201.6,349.5 Z" fill="#8B5CB7"></path>
                        <path d="M251.8,357 L250.8,356.5 C249.1,355.7 246.7,356.5 246,358.3 C245.3,360.1 245.9,362.3 247.8,363.1 L248.8,363.6 C250.5,364.4 252.9,363.6 253.6,361.8 C254.3,360 253.6,357.8 251.8,357 Z" fill="#8B5CB7"></path>
                        <path d="M226,326.5 C225.7,324.4 224.1,323.2 222,323.2 C221.2,323.2 220.4,323.3 219.6,323.3 C217.7,323.4 216.1,325.4 216.3,327.3 C216.6,329.4 218.2,330.6 220.3,330.6 C221.1,330.6 221.9,330.5 222.7,330.5 C224.6,330.4 226.2,328.4 226,326.5 Z" fill="#8B5CB7"></path>
                        <path d="M247.2,335.6 C242.9,333.6 239.9,340.3 244.2,342.2 C248.4,344.2 251.5,337.6 247.2,335.6 Z" fill="#8B5CB7"></path>
                        <path d="M295.1,338.5 C290.8,336.5 287.8,343.2 292.1,345.1 C296.3,347 299.4,340.4 295.1,338.5 Z" fill="#8B5CB7"></path>
                        <path d="M235.3,345.8 C231,343.8 228,350.5 232.3,352.4 C236.5,354.4 239.6,347.7 235.3,345.8 Z" fill="#8B5CB7"></path>
                        <path d="M247.4,311.7 C243.1,309.7 240.1,316.4 244.4,318.3 C248.6,320.3 251.7,313.7 247.4,311.7 Z" fill="#8B5CB7"></path>
                        <path d="M273.2,310.4 C268.9,308.4 265.9,315.1 270.2,317 C274.4,319 277.5,312.3 273.2,310.4 Z" fill="#8B5CB7"></path>
                        <path d="M267.2,336.4 C262.9,334.4 259.9,341.1 264.2,343 C268.4,345 271.5,338.4 267.2,336.4 Z" fill="#8B5CB7"></path>
                        <path d="M278,352.2 C273.7,350.2 270.7,356.9 275,358.8 C279.2,360.8 282.3,354.2 278,352.2 Z" fill="#8B5CB7"></path>
                        <path d="M292.4,315.6 C288.1,313.6 285.1,320.3 289.4,322.2 C293.6,324.2 296.7,317.6 292.4,315.6 Z" fill="#8B5CB7"></path>
                        <path d="M321.1,310.8 C316.8,308.8 313.8,315.5 318.1,317.4 C322.3,319.4 325.3,312.7 321.1,310.8 Z" fill="#8B5CB7"></path>
                        <path d="M333.9,301.1 C329.6,299.1 326.6,305.8 330.9,307.7 C335.2,309.7 338.2,303 333.9,301.1 Z" fill="#8B5CB7"></path>
                        <path d="M305.7,302.5 C301.4,300.5 298.4,307.2 302.7,309.1 C306.9,311.1 309.9,304.4 305.7,302.5 Z" fill="#8B5CB7"></path>
                        <path d="M314.3,328.1 C310,326.1 307,332.8 311.3,334.7 C315.5,336.7 318.6,330 314.3,328.1 Z" fill="#8B5CB7"></path>
                    </g>
                    <path d="M205.1,491.4 C207.9,421.8 188.8,352.6 150.1,294.6 C144,285.5 130.1,295.3 136.2,304.4 C172.3,358.4 191,423.7 188.4,488.7 C188.2,493.3 190.5,497.6 195.4,498.5 C199.4,499.1 204.9,496 205.1,491.4 Z" fill="#5C6032"></path>
                    <path d="M195.8,399.1 C186.8,362.1 171.4,326.6 150,294.6 C143.9,285.5 130,295.3 136.1,304.4 C157.6,336.6 173,372.9 181.3,410.6 C187.3,409.1 192,404.2 195.8,399.1 Z" fill="#343519"></path>
                    <g transform="translate(0.000000, 66.000000)">
                        <path d="M194.1,206.1 C164.3,100.9 97.4,-44.5 30.8,14.3 C-39.8,76.7 83.4,230.6 126,279.7 C134.2,289.2 143.2,297.9 153,305.9 L185.4,332.4 L185.4,332.4 C202.9,292.5 206,247.9 194.1,206.1 Z" fill="#808850"></path>
                        <path d="M186,181.2 C178.5,207.3 170.9,233.5 163.4,259.6 C157.5,242.9 150.9,226.4 143.9,210.1 C147.9,177.3 153.8,144.8 161.5,112.6 C162.3,109.4 157.4,107.9 156.6,111.2 C149.5,140.8 143.9,170.8 139.9,201 C133.2,185.9 126.1,171 118.7,156.3 C121.5,122.6 125.8,89 131.5,55.7 C132.1,52.5 127.1,51 126.6,54.3 C121.3,85.3 117.1,116.4 114.3,147.7 C107.5,134.4 100.4,121.1 93.1,108 C96.1,74.2 100,40.4 105,6.8 C105.5,3.5 100.4,3.4 99.9,6.7 C95.3,37.7 91.6,68.9 88.7,100.1 C81.4,87.2 74,74.4 66.5,61.7 C54.5,41.6 42.3,21.6 29.9,1.7 C28.2,-1.1 23.7,1.4 25.4,4.2 C45.8,37.1 66,70.1 84.9,103.9 C58.6,90.4 31.3,79 3.2,69.8 C0.1,68.8 -1.4,73.7 1.8,74.7 C31.9,84.6 61.1,97 89,111.8 C89.1,111.9 89.3,111.9 89.4,112 C97.2,126.1 104.8,140.2 112,154.6 C99.5,146 85.3,140.5 70.8,136 C51.1,129.8 31,124.6 10.9,119.9 C7.7,119.2 6.2,124.1 9.5,124.8 C28.7,129.2 47.8,134.3 66.7,140 C83.4,145.1 100.2,151.1 114,162.2 C114.7,162.8 115.6,163 116.3,162.8 C123.8,177.8 130.9,193 137.6,208.4 C108,189.1 75,175.4 40.4,168 C37.2,167.3 35.7,172.2 39,172.9 C75,180.5 109.2,195.1 139.6,215.8 C140.1,216.1 140.6,216.2 141,216.2 C141.6,217.7 142.2,219.1 142.8,220.6 C148.8,234.9 154.3,249.3 159.4,263.9 C136.4,253.2 112.7,244.2 88.4,237 C85.2,236.1 83.8,241 87,241.9 C112.7,249.5 137.7,259.1 161.8,270.6 C163.7,276.1 165.5,281.6 167.2,287.2 C168.2,290.3 173.2,289.1 172.2,286 C170.3,280 168.4,274 166.3,268 C174.5,239.6 182.7,211.1 190.9,182.7 C191.8,179.4 186.9,178 186,181.2 Z" fill="#5C6032"></path>
                        <g transform="translate(55.000000, 14.000000)" fill="#98B44B">
                            <path d="M2.8,8.9 C1.5,9.3 0.6,10.6 0.9,12 L1,12.4 C1.3,13.7 2.8,14.7 4.1,14.3 C5.4,13.9 6.3,12.6 6,11.2 L5.9,10.8 C5.6,9.5 4.2,8.5 2.8,8.9 Z"></path>
                            <path d="M24.2,6.8 C21,7.6 22.2,12.6 25.4,11.8 C28.7,10.9 27.5,6 24.2,6.8 Z"></path>
                            <path d="M10.8,21.9 C7.6,22.7 8.8,27.7 12,26.9 C15.2,26 14,21.1 10.8,21.9 Z"></path>
                            <path d="M15.9,34.7 C14.6,35.1 13.7,36.4 14,37.8 L14.1,38.2 C14.4,39.5 15.9,40.5 17.2,40.1 C18.5,39.7 19.4,38.4 19.1,37 L19,36.6 C18.7,35.3 17.2,34.3 15.9,34.7 Z"></path>
                            <path d="M29,24.4 L28.6,24.5 C27.3,24.8 26.3,26.3 26.7,27.6 C27.1,28.9 28.4,29.8 29.8,29.5 L30.2,29.4 C31.5,29.1 32.5,27.6 32.1,26.3 C31.7,24.9 30.4,24 29,24.4 Z"></path>
                            <path d="M9.9,0.9 C6.7,1.7 7.9,6.7 11.1,5.9 C14.3,5.1 13.1,0.1 9.9,0.9 Z"></path>
                            <path d="M19.5,16.2 C16.3,17 17.5,22 20.7,21.2 C24,20.3 22.7,15.4 19.5,16.2 Z"></path>
                            <path d="M50.1,27.7 C46.9,28.5 48.1,33.5 51.3,32.7 C54.6,31.9 53.3,27 50.1,27.7 Z"></path>
                            <path d="M49.1,55.7 C45.9,56.5 47.1,61.5 50.3,60.7 C53.6,59.8 52.3,54.9 49.1,55.7 Z"></path>
                            <path d="M62.5,55.5 C61.2,55.9 60.3,57.2 60.6,58.6 L60.8,59.3 C61.1,60.6 62.6,61.6 63.9,61.2 C65.2,60.8 66.1,59.5 65.8,58.1 L65.6,57.4 C65.3,56.1 63.9,55.1 62.5,55.5 Z"></path>
                            <path d="M62.9,38 C59.7,38.8 60.9,43.8 64.1,43 C67.4,42.2 66.1,37.2 62.9,38 Z"></path>
                            <path d="M51,44.1 C49.7,44.5 48.8,45.8 49.1,47.2 L49.3,47.9 C49.6,49.2 51.1,50.2 52.4,49.8 C53.7,49.4 54.6,48.1 54.3,46.7 L54.1,46 C53.8,44.7 52.3,43.7 51,44.1 Z"></path>
                        </g>
                    </g>
                    <path d="M413.5,510.8 C414.2,506.7 411.1,501.2 406.5,501 C337.4,498.4 268.2,511.7 205.2,540.4 C187.4,548.5 170.2,557.8 153.6,568.2 C144.3,574 154.1,587.9 163.4,582.1 C219,547.4 282.4,525.9 347.6,519.6 C366.2,517.8 385,517.1 403.8,517.8 C408.4,518 412.6,515.7 413.5,510.8 Z" fill="#5C6032"></path>
                    <g transform="translate(323.000000, 421.000000)">
                        <path d="M79.9,36.1 C163.4,6.2 291,-18.2 283.5,53.5 C275.6,129.5 115.9,120.7 63.4,115.7 C53.3,114.7 43.2,112.9 33.4,110.2 L0.6,101.3 L0.6,101.3 C18.7,71 46.7,47.9 79.9,36.1 Z" fill="#696D3E"></path>
                        <path d="M100.2,29.7 C86.5,47 72.8,64.3 59.1,81.6 C72.9,77.6 86.9,74.2 101,71.1 C120.8,53 139.5,33.8 157.1,13.5 C158.9,11.5 162.1,14 160.4,16.1 C144.2,34.8 127,52.6 109,69.5 C122.1,66.8 135.3,64.5 148.5,62.4 C169.4,44.6 189.6,26 208.9,6.5 C210.8,4.6 214.1,7.2 212.2,9.1 C194.3,27.2 175.6,44.6 156.3,61.3 C168.3,59.5 180.4,58 192.5,56.6 C213.4,38.7 233.9,20.2 253.7,1 C255.6,-0.9 258.1,2.5 256.2,4.3 C237.9,22 219.1,39.1 199.8,55.7 C211.7,54.4 223.7,53.3 235.6,52.3 C254.5,50.7 273.5,49.4 292.5,48.2 C295.2,48 295.6,52.2 292.9,52.3 C261.6,54.3 230.2,56.6 199,60 C220.3,71 240.7,83.7 260.1,97.9 C262.3,99.5 259.7,102.8 257.5,101.2 C236.8,86 214.8,72.6 191.9,61.1 C191.8,61 191.7,61 191.6,60.9 C178.6,62.4 165.7,64.1 152.8,66 C164.4,70.2 174.7,77 184.5,84.5 C197.9,94.6 210.8,105.4 223.4,116.5 C225.4,118.3 222.8,121.5 220.8,119.8 C208.8,109.2 196.5,99 183.8,89.2 C172.6,80.6 160.7,72.3 146.8,68.5 C146.1,68.3 145.5,67.8 145.3,67.3 C131.9,69.4 118.5,71.9 105.1,74.7 C131.8,85.1 156.4,100.5 177.6,119.9 C179.6,121.7 177,125 175,123.2 C153,103 127.3,87.3 99.3,77 C98.9,76.8 98.6,76.6 98.4,76.2 C97.2,76.5 95.9,76.7 94.7,77 C82.5,79.8 70.3,82.9 58.2,86.4 C76.1,96.5 93.2,107.9 109.5,120.6 C111.6,122.3 109,125.5 106.9,123.9 C89.8,110.5 71.7,98.5 52.7,88 C48.2,89.4 43.7,90.8 39.2,92.3 C36.7,93.1 35.1,89.3 37.7,88.4 C42.6,86.8 47.4,85.3 52.3,83.8 C67.2,65 82.1,46.2 97,27.4 C98.6,25 101.9,27.6 100.2,29.7 Z" fill="#5C6032"></path>
                        <g transform="translate(201.000000, 12.000000)" fill="#98B44B">
                            <path d="M64.1,27.7 C64.5,28.8 64,30 62.9,30.4 L62.6,30.5 C61.6,30.9 60.3,30.4 59.9,29.3 C59.5,28.2 60,27 61.1,26.6 L61.4,26.5 C62.4,26.2 63.7,26.7 64.1,27.7 Z"></path>
                            <path d="M55.4,12.6 C56.4,15.1 52.5,16.6 51.5,14.1 C50.6,11.6 54.5,10.1 55.4,12.6 Z"></path>
                            <path d="M51.8,28.6 C52.8,31.1 48.9,32.6 47.9,30.1 C47,27.6 50.8,26.1 51.8,28.6 Z"></path>
                            <path d="M40.9,31.3 C41.3,32.4 40.8,33.6 39.7,34 L39.4,34.1 C38.4,34.5 37.1,34 36.7,32.9 C36.3,31.8 36.8,30.6 37.9,30.2 L38.2,30.1 C39.2,29.7 40.6,30.2 40.9,31.3 Z"></path>
                            <path d="M41.5,17.7 L41.6,18 C42,19 41.5,20.3 40.4,20.7 C39.3,21.1 38.1,20.6 37.7,19.5 L37.6,19.2 C37.2,18.2 37.7,16.9 38.8,16.5 C39.9,16.2 41.1,16.6 41.5,17.7 Z"></path>
                            <path d="M66.1,19.3 C67.1,21.8 63.2,23.3 62.2,20.8 C61.2,18.4 65.1,16.8 66.1,19.3 Z"></path>
                            <path d="M51.5,20.1 C52.5,22.6 48.6,24.1 47.6,21.6 C46.6,19.2 50.5,17.6 51.5,20.1 Z"></path>
                            <path d="M29.4,5.4 C30.4,7.9 26.5,9.4 25.5,6.9 C24.5,4.4 28.4,2.9 29.4,5.4 Z"></path>
                            <path d="M11.4,19.2 C12.4,21.7 8.5,23.2 7.5,20.7 C6.6,18.2 10.4,16.7 11.4,19.2 Z"></path>
                            <path d="M5.2,10.3 C5.6,11.4 5.1,12.6 4,13 L3.4,13.2 C2.4,13.6 1.1,13.1 0.7,12 C0.3,10.9 0.8,9.7 1.9,9.3 L2.5,9.1 C3.5,8.7 4.8,9.2 5.2,10.3 Z"></path>
                            <path d="M16.6,1.8 C17.6,4.3 13.7,5.8 12.7,3.3 C11.7,0.8 15.6,-0.7 16.6,1.8 Z"></path>
                            <path d="M18.1,12.5 C18.5,13.6 18,14.8 16.9,15.2 L16.3,15.4 C15.3,15.8 14,15.3 13.6,14.2 C13.2,13.1 13.7,11.9 14.8,11.5 L15.4,11.3 C16.5,10.9 17.8,11.4 18.1,12.5 Z"></path>
                        </g>
                    </g>
                </g>
            </g>
        </g>
    </g>
</svg>